<svg width="1280" height="832" viewBox="0 0 1280 832" fill="none" xmlns="http://www.w3.org/2000/svg">
<g clip-path="url(#clip0_14_37170)">
<rect width="1280" height="832" fill="#0099FF"/>
<path fill-rule="evenodd" clip-rule="evenodd" d="M1585 441L1546.94 447.938C1507.06 456.033 1430.94 469.909 1353 493.036C1275.06 515.007 1198.94 543.915 1121 567.042C1043.06 589.013 966.938 604.046 889 589.013C811.062 573.98 734.938 530.039 657 499.974C579.062 469.909 502.938 456.033 425 462.971C347.062 469.909 270.938 499.974 193 558.948C115.062 617.922 38.9375 706.961 -39 691.928C-116.938 678.052 -193.062 558.948 -271 515.007C-348.938 469.909 -425.062 499.974 -503 515.007C-580.938 530.039 -657.062 530.039 -696.938 530.039H-735V796H-696.938C-657.062 796 -580.938 796 -503 796C-425.062 796 -348.938 796 -271 796C-193.062 796 -116.938 796 -39 796C38.9375 796 115.062 796 193 796C270.938 796 347.062 796 425 796C502.938 796 579.062 796 657 796C734.938 796 811.062 796 889 796C966.938 796 1043.06 796 1121 796C1198.94 796 1275.06 796 1353 796C1430.94 796 1507.06 796 1546.94 796H1585V441Z" fill="#0065A9"/>
<path fill-rule="evenodd" clip-rule="evenodd" d="M0 629.833H27C53 629.833 107 629.833 160 645.584C213 661.335 267 693.665 320 693.665C373 693.665 427 661.335 480 629.833C533 598.331 587 566 640 566C693 566 747 598.331 800 634.807C853 672.112 907 714.39 960 725.167C1013 735.944 1067 714.39 1120 709.416C1173 704.442 1227 714.39 1253 720.193L1280 725.167V789H1253C1227 789 1173 789 1120 789C1067 789 1013 789 960 789C907 789 853 789 800 789C747 789 693 789 640 789C587 789 533 789 480 789C427 789 373 789 320 789C267 789 213 789 160 789C107 789 53 789 27 789H0V629.833Z" fill="#007CCF"/>
<path fill-rule="evenodd" clip-rule="evenodd" d="M0 760.022L43 724.5C85 688.043 171 617 256 617C341 617 427 688.043 512 706.739C597 724.5 683 688.043 768 688.043C853 688.043 939 724.5 1024 742.261C1109 760.022 1195 760.022 1237 760.022H1280V832H1237C1195 832 1109 832 1024 832C939 832 853 832 768 832C683 832 597 832 512 832C427 832 341 832 256 832C171 832 85 832 43 832H0V760.022Z" fill="#0099FF"/>
<path fill-rule="evenodd" clip-rule="evenodd" d="M1585 441L1546.94 447.938C1507.06 456.033 1430.94 469.909 1353 493.036C1275.06 515.007 1198.94 543.915 1121 567.042C1043.06 589.013 966.938 604.046 889 589.013C811.062 573.98 734.938 530.039 657 499.974C579.062 469.909 502.938 456.033 425 462.971C347.062 469.909 270.938 499.974 193 558.948C115.062 617.922 38.9375 706.961 -39 691.928C-116.938 678.052 -193.062 558.948 -271 515.007C-348.938 469.909 -425.062 499.974 -503 515.007C-580.938 530.039 -657.062 530.039 -696.938 530.039H-735V796H-696.938C-657.062 796 -580.938 796 -503 796C-425.062 796 -348.938 796 -271 796C-193.062 796 -116.938 796 -39 796C38.9375 796 115.062 796 193 796C270.938 796 347.062 796 425 796C502.938 796 579.062 796 657 796C734.938 796 811.062 796 889 796C966.938 796 1043.06 796 1121 796C1198.94 796 1275.06 796 1353 796C1430.94 796 1507.06 796 1546.94 796H1585V441Z" stroke="black"/>
<path fill-rule="evenodd" clip-rule="evenodd" d="M0 629.833H27C53 629.833 107 629.833 160 645.584C213 661.335 267 693.665 320 693.665C373 693.665 427 661.335 480 629.833C533 598.331 587 566 640 566C693 566 747 598.331 800 634.807C853 672.112 907 714.39 960 725.167C1013 735.944 1067 714.39 1120 709.416C1173 704.442 1227 714.39 1253 720.193L1280 725.167V789H1253C1227 789 1173 789 1120 789C1067 789 1013 789 960 789C907 789 853 789 800 789C747 789 693 789 640 789C587 789 533 789 480 789C427 789 373 789 320 789C267 789 213 789 160 789C107 789 53 789 27 789H0V629.833Z" stroke="black"/>
<path fill-rule="evenodd" clip-rule="evenodd" d="M0 760.022L43 724.5C85 688.043 171 617 256 617C341 617 427 688.043 512 706.739C597 724.5 683 688.043 768 688.043C853 688.043 939 724.5 1024 742.261C1109 760.022 1195 760.022 1237 760.022H1280V832H1237C1195 832 1109 832 1024 832C939 832 853 832 768 832C683 832 597 832 512 832C427 832 341 832 256 832C171 832 85 832 43 832H0V760.022Z" stroke="black"/>
</g>
<rect y="3" width="1280" height="829" fill="#002F4E" fill-opacity="0.2"/>
<g opacity="0.62">
<rect width="1280" height="832" fill="#0184DB"/>
<g clip-path="url(#clip1_14_37170)">
<circle cx="1.5" cy="1.5" r="1.5" fill="white"/>
<circle cx="54.5" cy="1.5" r="1.5" fill="white"/>
<circle cx="107.5" cy="1.5" r="1.5" fill="white"/>
<circle cx="160.5" cy="1.5" r="1.5" fill="white"/>
<circle cx="213.5" cy="1.5" r="1.5" fill="white"/>
<circle cx="266.5" cy="1.5" r="1.5" fill="white"/>
<circle cx="319.5" cy="1.5" r="1.5" fill="white"/>
<circle cx="372.5" cy="1.5" r="1.5" fill="white"/>
<circle cx="425.5" cy="1.5" r="1.5" fill="white"/>
<circle cx="478.5" cy="1.5" r="1.5" fill="white"/>
<circle cx="531.5" cy="1.5" r="1.5" fill="white"/>
<circle cx="584.5" cy="1.5" r="1.5" fill="white"/>
<circle cx="637.5" cy="1.5" r="1.5" fill="white"/>
<circle cx="690.5" cy="1.5" r="1.5" fill="white"/>
<circle cx="743.5" cy="1.5" r="1.5" fill="white"/>
<circle cx="796.5" cy="1.5" r="1.5" fill="white"/>
<circle cx="849.5" cy="1.5" r="1.5" fill="white"/>
<circle cx="902.5" cy="1.5" r="1.5" fill="white"/>
<circle cx="955.5" cy="1.5" r="1.5" fill="white"/>
<circle cx="1008.5" cy="1.5" r="1.5" fill="white"/>
<circle cx="1061.5" cy="1.5" r="1.5" fill="white"/>
<circle cx="1114.5" cy="1.5" r="1.5" fill="white"/>
<circle cx="1167.5" cy="1.5" r="1.5" fill="white"/>
<circle cx="1220.5" cy="1.5" r="1.5" fill="white"/>
<circle cx="1273.5" cy="1.5" r="1.5" fill="white"/>
<circle cx="1.5" cy="54.5" r="1.5" fill="white"/>
<circle cx="54.5" cy="54.5" r="1.5" fill="white"/>
<circle cx="107.5" cy="54.5" r="1.5" fill="white"/>
<circle cx="160.5" cy="54.5" r="1.5" fill="white"/>
<circle cx="213.5" cy="54.5" r="1.5" fill="white"/>
<circle cx="266.5" cy="54.5" r="1.5" fill="white"/>
<circle cx="319.5" cy="54.5" r="1.5" fill="white"/>
<circle cx="372.5" cy="54.5" r="1.5" fill="white"/>
<circle cx="425.5" cy="54.5" r="1.5" fill="white"/>
<circle cx="478.5" cy="54.5" r="1.5" fill="white"/>
<circle cx="531.5" cy="54.5" r="1.5" fill="white"/>
<circle cx="584.5" cy="54.5" r="1.5" fill="white"/>
<circle cx="637.5" cy="54.5" r="1.5" fill="white"/>
<circle cx="690.5" cy="54.5" r="1.5" fill="white"/>
<circle cx="743.5" cy="54.5" r="1.5" fill="white"/>
<circle cx="796.5" cy="54.5" r="1.5" fill="white"/>
<circle cx="849.5" cy="54.5" r="1.5" fill="white"/>
<circle cx="902.5" cy="54.5" r="1.5" fill="white"/>
<circle cx="955.5" cy="54.5" r="1.5" fill="white"/>
<circle cx="1008.5" cy="54.5" r="1.5" fill="white"/>
<circle cx="1061.5" cy="54.5" r="1.5" fill="white"/>
<circle cx="1114.5" cy="54.5" r="1.5" fill="white"/>
<circle cx="1167.5" cy="54.5" r="1.5" fill="white"/>
<circle cx="1220.5" cy="54.5" r="1.5" fill="white"/>
<circle cx="1273.5" cy="54.5" r="1.5" fill="white"/>
<circle cx="1.5" cy="107.5" r="1.5" fill="white"/>
<circle cx="54.5" cy="107.5" r="1.5" fill="white"/>
<circle cx="107.5" cy="107.5" r="1.5" fill="white"/>
<circle cx="160.5" cy="107.5" r="1.5" fill="white"/>
<circle cx="213.5" cy="107.5" r="1.5" fill="white"/>
<circle cx="266.5" cy="107.5" r="1.5" fill="white"/>
<circle cx="319.5" cy="107.5" r="1.5" fill="white"/>
<circle cx="372.5" cy="107.5" r="1.5" fill="white"/>
<circle cx="425.5" cy="107.5" r="1.5" fill="white"/>
<circle cx="478.5" cy="107.5" r="1.5" fill="white"/>
<circle cx="531.5" cy="107.5" r="1.5" fill="white"/>
<circle cx="584.5" cy="107.5" r="1.5" fill="white"/>
<circle cx="637.5" cy="107.5" r="1.5" fill="white"/>
<circle cx="690.5" cy="107.5" r="1.5" fill="white"/>
<circle cx="743.5" cy="107.5" r="1.5" fill="white"/>
<circle cx="796.5" cy="107.5" r="1.5" fill="white"/>
<circle cx="849.5" cy="107.5" r="1.5" fill="white"/>
<circle cx="902.5" cy="107.5" r="1.5" fill="white"/>
<circle cx="955.5" cy="107.5" r="1.5" fill="white"/>
<circle cx="1008.5" cy="107.5" r="1.5" fill="white"/>
<circle cx="1061.5" cy="107.5" r="1.5" fill="white"/>
<circle cx="1114.5" cy="107.5" r="1.5" fill="white"/>
<circle cx="1167.5" cy="107.5" r="1.5" fill="white"/>
<circle cx="1220.5" cy="107.5" r="1.5" fill="white"/>
<circle cx="1273.5" cy="107.5" r="1.5" fill="white"/>
<circle cx="1.5" cy="160.5" r="1.5" fill="white"/>
<circle cx="54.5" cy="160.5" r="1.5" fill="white"/>
<circle cx="107.5" cy="160.5" r="1.5" fill="white"/>
<circle cx="160.5" cy="160.5" r="1.5" fill="white"/>
<circle cx="213.5" cy="160.5" r="1.5" fill="white"/>
<circle cx="266.5" cy="160.5" r="1.5" fill="white"/>
<circle cx="319.5" cy="160.5" r="1.5" fill="white"/>
<circle cx="372.5" cy="160.5" r="1.5" fill="white"/>
<circle cx="425.5" cy="160.5" r="1.5" fill="white"/>
<circle cx="478.5" cy="160.5" r="1.5" fill="white"/>
<circle cx="531.5" cy="160.5" r="1.5" fill="white"/>
<circle cx="584.5" cy="160.5" r="1.5" fill="white"/>
<circle cx="637.5" cy="160.5" r="1.5" fill="white"/>
<circle cx="690.5" cy="160.5" r="1.5" fill="white"/>
<circle cx="743.5" cy="160.5" r="1.5" fill="white"/>
<circle cx="796.5" cy="160.5" r="1.5" fill="white"/>
<circle cx="849.5" cy="160.5" r="1.5" fill="white"/>
<circle cx="902.5" cy="160.5" r="1.5" fill="white"/>
<circle cx="955.5" cy="160.5" r="1.5" fill="white"/>
<circle cx="1008.5" cy="160.5" r="1.5" fill="white"/>
<circle cx="1061.5" cy="160.5" r="1.5" fill="white"/>
<circle cx="1114.5" cy="160.5" r="1.5" fill="white"/>
<circle cx="1167.5" cy="160.5" r="1.5" fill="white"/>
<circle cx="1220.5" cy="160.5" r="1.5" fill="white"/>
<circle cx="1273.5" cy="160.5" r="1.5" fill="white"/>
<circle cx="1.5" cy="213.5" r="1.5" fill="white"/>
<circle cx="54.5" cy="213.5" r="1.5" fill="white"/>
<circle cx="107.5" cy="213.5" r="1.5" fill="white"/>
<circle cx="160.5" cy="213.5" r="1.5" fill="white"/>
<circle cx="213.5" cy="213.5" r="1.5" fill="white"/>
<circle cx="266.5" cy="213.5" r="1.5" fill="white"/>
<circle cx="319.5" cy="213.5" r="1.5" fill="white"/>
<circle cx="372.5" cy="213.5" r="1.5" fill="white"/>
<circle cx="425.5" cy="213.5" r="1.5" fill="white"/>
<circle cx="478.5" cy="213.5" r="1.5" fill="white"/>
<circle cx="531.5" cy="213.5" r="1.5" fill="white"/>
<circle cx="584.5" cy="213.5" r="1.5" fill="white"/>
<circle cx="637.5" cy="213.5" r="1.5" fill="white"/>
<circle cx="690.5" cy="213.5" r="1.5" fill="white"/>
<circle cx="743.5" cy="213.5" r="1.5" fill="white"/>
<circle cx="796.5" cy="213.5" r="1.5" fill="white"/>
<circle cx="849.5" cy="213.5" r="1.5" fill="white"/>
<circle cx="902.5" cy="213.5" r="1.5" fill="white"/>
<circle cx="955.5" cy="213.5" r="1.5" fill="white"/>
<circle cx="1008.5" cy="213.5" r="1.5" fill="white"/>
<circle cx="1061.5" cy="213.5" r="1.5" fill="white"/>
<circle cx="1114.5" cy="213.5" r="1.5" fill="white"/>
<circle cx="1167.5" cy="213.5" r="1.5" fill="white"/>
<circle cx="1220.5" cy="213.5" r="1.5" fill="white"/>
<circle cx="1273.5" cy="213.5" r="1.5" fill="white"/>
<circle cx="1.5" cy="266.5" r="1.5" fill="white"/>
<circle cx="54.5" cy="266.5" r="1.5" fill="white"/>
<circle cx="107.5" cy="266.5" r="1.5" fill="white"/>
<circle cx="160.5" cy="266.5" r="1.5" fill="white"/>
<circle cx="213.5" cy="266.5" r="1.5" fill="white"/>
<circle cx="266.5" cy="266.5" r="1.5" fill="white"/>
<circle cx="319.5" cy="266.5" r="1.5" fill="white"/>
<circle cx="372.5" cy="266.5" r="1.5" fill="white"/>
<circle cx="425.5" cy="266.5" r="1.5" fill="white"/>
<circle cx="478.5" cy="266.5" r="1.5" fill="white"/>
<circle cx="531.5" cy="266.5" r="1.5" fill="white"/>
<circle cx="584.5" cy="266.5" r="1.5" fill="white"/>
<circle cx="637.5" cy="266.5" r="1.5" fill="white"/>
<circle cx="690.5" cy="266.5" r="1.5" fill="white"/>
<circle cx="743.5" cy="266.5" r="1.5" fill="white"/>
<circle cx="796.5" cy="266.5" r="1.5" fill="white"/>
<circle cx="849.5" cy="266.5" r="1.5" fill="white"/>
<circle cx="902.5" cy="266.5" r="1.5" fill="white"/>
<circle cx="955.5" cy="266.5" r="1.5" fill="white"/>
<circle cx="1008.5" cy="266.5" r="1.5" fill="white"/>
<circle cx="1061.5" cy="266.5" r="1.5" fill="white"/>
<circle cx="1114.5" cy="266.5" r="1.5" fill="white"/>
<circle cx="1167.5" cy="266.5" r="1.5" fill="white"/>
<circle cx="1220.5" cy="266.5" r="1.5" fill="white"/>
<circle cx="1273.5" cy="266.5" r="1.5" fill="white"/>
<circle cx="1.5" cy="319.5" r="1.5" fill="white"/>
<circle cx="54.5" cy="319.5" r="1.5" fill="white"/>
<circle cx="107.5" cy="319.5" r="1.5" fill="white"/>
<circle cx="160.5" cy="319.5" r="1.5" fill="white"/>
<circle cx="213.5" cy="319.5" r="1.5" fill="white"/>
<circle cx="266.5" cy="319.5" r="1.5" fill="white"/>
<circle cx="319.5" cy="319.5" r="1.5" fill="white"/>
<circle cx="372.5" cy="319.5" r="1.5" fill="white"/>
<circle cx="425.5" cy="319.5" r="1.5" fill="white"/>
<circle cx="478.5" cy="319.5" r="1.5" fill="white"/>
<circle cx="531.5" cy="319.5" r="1.5" fill="white"/>
<circle cx="584.5" cy="319.5" r="1.5" fill="white"/>
<circle cx="637.5" cy="319.5" r="1.5" fill="white"/>
<circle cx="690.5" cy="319.5" r="1.5" fill="white"/>
<circle cx="743.5" cy="319.5" r="1.5" fill="white"/>
<circle cx="796.5" cy="319.5" r="1.5" fill="white"/>
<circle cx="849.5" cy="319.5" r="1.5" fill="white"/>
<circle cx="902.5" cy="319.5" r="1.5" fill="white"/>
<circle cx="955.5" cy="319.5" r="1.5" fill="white"/>
<circle cx="1008.5" cy="319.5" r="1.5" fill="white"/>
<circle cx="1061.5" cy="319.5" r="1.5" fill="white"/>
<circle cx="1114.5" cy="319.5" r="1.5" fill="white"/>
<circle cx="1167.5" cy="319.5" r="1.5" fill="white"/>
<circle cx="1220.5" cy="319.5" r="1.5" fill="white"/>
<circle cx="1273.5" cy="319.5" r="1.5" fill="white"/>
<circle cx="1.5" cy="372.5" r="1.5" fill="white"/>
<circle cx="54.5" cy="372.5" r="1.5" fill="white"/>
<circle cx="107.5" cy="372.5" r="1.5" fill="white"/>
<circle cx="160.5" cy="372.5" r="1.5" fill="white"/>
<circle cx="213.5" cy="372.5" r="1.5" fill="white"/>
<circle cx="266.5" cy="372.5" r="1.5" fill="white"/>
<circle cx="319.5" cy="372.5" r="1.5" fill="white"/>
<circle cx="372.5" cy="372.5" r="1.5" fill="white"/>
<circle cx="425.5" cy="372.5" r="1.5" fill="white"/>
<circle cx="478.5" cy="372.5" r="1.5" fill="white"/>
<circle cx="531.5" cy="372.5" r="1.5" fill="white"/>
<circle cx="584.5" cy="372.5" r="1.5" fill="white"/>
<circle cx="637.5" cy="372.5" r="1.5" fill="white"/>
<circle cx="690.5" cy="372.5" r="1.5" fill="white"/>
<circle cx="743.5" cy="372.5" r="1.5" fill="white"/>
<circle cx="796.5" cy="372.5" r="1.5" fill="white"/>
<circle cx="849.5" cy="372.5" r="1.5" fill="white"/>
<circle cx="902.5" cy="372.5" r="1.5" fill="white"/>
<circle cx="955.5" cy="372.5" r="1.5" fill="white"/>
<circle cx="1008.5" cy="372.5" r="1.5" fill="white"/>
<circle cx="1061.5" cy="372.5" r="1.5" fill="white"/>
<circle cx="1114.5" cy="372.5" r="1.5" fill="white"/>
<circle cx="1167.5" cy="372.5" r="1.5" fill="white"/>
<circle cx="1220.5" cy="372.5" r="1.5" fill="white"/>
<circle cx="1273.5" cy="372.5" r="1.5" fill="white"/>
<circle cx="1.5" cy="425.5" r="1.5" fill="white"/>
<circle cx="54.5" cy="425.5" r="1.5" fill="white"/>
<circle cx="107.5" cy="425.5" r="1.5" fill="white"/>
<circle cx="160.5" cy="425.5" r="1.5" fill="white"/>
<circle cx="213.5" cy="425.5" r="1.5" fill="white"/>
<circle cx="266.5" cy="425.5" r="1.5" fill="white"/>
<circle cx="319.5" cy="425.5" r="1.5" fill="white"/>
<circle cx="372.5" cy="425.5" r="1.5" fill="white"/>
<circle cx="425.5" cy="425.5" r="1.5" fill="white"/>
<circle cx="478.5" cy="425.5" r="1.5" fill="white"/>
<circle cx="531.5" cy="425.5" r="1.5" fill="white"/>
<circle cx="584.5" cy="425.5" r="1.5" fill="white"/>
<circle cx="637.5" cy="425.5" r="1.5" fill="white"/>
<circle cx="690.5" cy="425.5" r="1.5" fill="white"/>
<circle cx="743.5" cy="425.5" r="1.5" fill="white"/>
<circle cx="796.5" cy="425.5" r="1.5" fill="white"/>
<circle cx="849.5" cy="425.5" r="1.5" fill="white"/>
<circle cx="902.5" cy="425.5" r="1.5" fill="white"/>
<circle cx="955.5" cy="425.5" r="1.5" fill="white"/>
<circle cx="1008.5" cy="425.5" r="1.5" fill="white"/>
<circle cx="1061.5" cy="425.5" r="1.5" fill="white"/>
<circle cx="1114.5" cy="425.5" r="1.5" fill="white"/>
<circle cx="1167.5" cy="425.5" r="1.5" fill="white"/>
<circle cx="1220.5" cy="425.5" r="1.5" fill="white"/>
<circle cx="1273.5" cy="425.5" r="1.5" fill="white"/>
<circle cx="1.5" cy="478.5" r="1.5" fill="white"/>
<circle cx="54.5" cy="478.5" r="1.5" fill="white"/>
<circle cx="107.5" cy="478.5" r="1.5" fill="white"/>
<circle cx="160.5" cy="478.5" r="1.5" fill="white"/>
<circle cx="213.5" cy="478.5" r="1.5" fill="white"/>
<circle cx="266.5" cy="478.5" r="1.5" fill="white"/>
<circle cx="319.5" cy="478.5" r="1.5" fill="white"/>
<circle cx="372.5" cy="478.5" r="1.5" fill="white"/>
<circle cx="425.5" cy="478.5" r="1.5" fill="white"/>
<circle cx="478.5" cy="478.5" r="1.5" fill="white"/>
<circle cx="531.5" cy="478.5" r="1.5" fill="white"/>
<circle cx="584.5" cy="478.5" r="1.5" fill="white"/>
<circle cx="637.5" cy="478.5" r="1.5" fill="white"/>
<circle cx="690.5" cy="478.5" r="1.5" fill="white"/>
<circle cx="743.5" cy="478.5" r="1.5" fill="white"/>
<circle cx="796.5" cy="478.5" r="1.5" fill="white"/>
<circle cx="849.5" cy="478.5" r="1.5" fill="white"/>
<circle cx="902.5" cy="478.5" r="1.5" fill="white"/>
<circle cx="955.5" cy="478.5" r="1.5" fill="white"/>
<circle cx="1008.5" cy="478.5" r="1.5" fill="white"/>
<circle cx="1061.5" cy="478.5" r="1.5" fill="white"/>
<circle cx="1114.5" cy="478.5" r="1.5" fill="white"/>
<circle cx="1167.5" cy="478.5" r="1.5" fill="white"/>
<circle cx="1220.5" cy="478.5" r="1.5" fill="white"/>
<circle cx="1273.5" cy="478.5" r="1.5" fill="white"/>
<circle cx="1.5" cy="531.5" r="1.5" fill="white"/>
<circle cx="54.5" cy="531.5" r="1.5" fill="white"/>
<circle cx="107.5" cy="531.5" r="1.5" fill="white"/>
<circle cx="160.5" cy="531.5" r="1.5" fill="white"/>
<circle cx="213.5" cy="531.5" r="1.5" fill="white"/>
<circle cx="266.5" cy="531.5" r="1.5" fill="white"/>
<circle cx="319.5" cy="531.5" r="1.5" fill="white"/>
<circle cx="372.5" cy="531.5" r="1.5" fill="white"/>
<circle cx="425.5" cy="531.5" r="1.5" fill="white"/>
<circle cx="478.5" cy="531.5" r="1.5" fill="white"/>
<circle cx="531.5" cy="531.5" r="1.5" fill="white"/>
<circle cx="584.5" cy="531.5" r="1.5" fill="white"/>
<circle cx="637.5" cy="531.5" r="1.5" fill="white"/>
<circle cx="690.5" cy="531.5" r="1.5" fill="white"/>
<circle cx="743.5" cy="531.5" r="1.5" fill="white"/>
<circle cx="796.5" cy="531.5" r="1.5" fill="white"/>
<circle cx="849.5" cy="531.5" r="1.5" fill="white"/>
<circle cx="902.5" cy="531.5" r="1.5" fill="white"/>
<circle cx="955.5" cy="531.5" r="1.5" fill="white"/>
<circle cx="1008.5" cy="531.5" r="1.5" fill="white"/>
<circle cx="1061.5" cy="531.5" r="1.5" fill="white"/>
<circle cx="1114.5" cy="531.5" r="1.5" fill="white"/>
<circle cx="1167.5" cy="531.5" r="1.5" fill="white"/>
<circle cx="1220.5" cy="531.5" r="1.5" fill="white"/>
<circle cx="1273.5" cy="531.5" r="1.5" fill="white"/>
<circle cx="1.5" cy="584.5" r="1.5" fill="white"/>
<circle cx="54.5" cy="584.5" r="1.5" fill="white"/>
<circle cx="107.5" cy="584.5" r="1.5" fill="white"/>
<circle cx="160.5" cy="584.5" r="1.5" fill="white"/>
<circle cx="213.5" cy="584.5" r="1.5" fill="white"/>
<circle cx="266.5" cy="584.5" r="1.5" fill="white"/>
<circle cx="319.5" cy="584.5" r="1.5" fill="white"/>
<circle cx="372.5" cy="584.5" r="1.5" fill="white"/>
<circle cx="425.5" cy="584.5" r="1.5" fill="white"/>
<circle cx="478.5" cy="584.5" r="1.5" fill="white"/>
<circle cx="531.5" cy="584.5" r="1.5" fill="white"/>
<circle cx="584.5" cy="584.5" r="1.5" fill="white"/>
<circle cx="637.5" cy="584.5" r="1.5" fill="white"/>
<circle cx="690.5" cy="584.5" r="1.5" fill="white"/>
<circle cx="743.5" cy="584.5" r="1.5" fill="white"/>
<circle cx="796.5" cy="584.5" r="1.5" fill="white"/>
<circle cx="849.5" cy="584.5" r="1.5" fill="white"/>
<circle cx="902.5" cy="584.5" r="1.5" fill="white"/>
<circle cx="955.5" cy="584.5" r="1.5" fill="white"/>
<circle cx="1008.5" cy="584.5" r="1.5" fill="white"/>
<circle cx="1061.5" cy="584.5" r="1.5" fill="white"/>
<circle cx="1114.5" cy="584.5" r="1.5" fill="white"/>
<circle cx="1167.5" cy="584.5" r="1.5" fill="white"/>
<circle cx="1220.5" cy="584.5" r="1.5" fill="white"/>
<circle cx="1273.5" cy="584.5" r="1.5" fill="white"/>
<circle cx="1.5" cy="637.5" r="1.5" fill="white"/>
<circle cx="54.5" cy="637.5" r="1.5" fill="white"/>
<circle cx="107.5" cy="637.5" r="1.5" fill="white"/>
<circle cx="160.5" cy="637.5" r="1.5" fill="white"/>
<circle cx="213.5" cy="637.5" r="1.5" fill="white"/>
<circle cx="266.5" cy="637.5" r="1.5" fill="white"/>
<circle cx="319.5" cy="637.5" r="1.5" fill="white"/>
<circle cx="372.5" cy="637.5" r="1.5" fill="white"/>
<circle cx="425.5" cy="637.5" r="1.5" fill="white"/>
<circle cx="478.5" cy="637.5" r="1.5" fill="white"/>
<circle cx="531.5" cy="637.5" r="1.5" fill="white"/>
<circle cx="584.5" cy="637.5" r="1.5" fill="white"/>
<circle cx="637.5" cy="637.5" r="1.5" fill="white"/>
<circle cx="690.5" cy="637.5" r="1.5" fill="white"/>
<circle cx="743.5" cy="637.5" r="1.5" fill="white"/>
<circle cx="796.5" cy="637.5" r="1.5" fill="white"/>
<circle cx="849.5" cy="637.5" r="1.5" fill="white"/>
<circle cx="902.5" cy="637.5" r="1.5" fill="white"/>
<circle cx="955.5" cy="637.5" r="1.5" fill="white"/>
<circle cx="1008.5" cy="637.5" r="1.5" fill="white"/>
<circle cx="1061.5" cy="637.5" r="1.5" fill="white"/>
<circle cx="1114.5" cy="637.5" r="1.5" fill="white"/>
<circle cx="1167.5" cy="637.5" r="1.5" fill="white"/>
<circle cx="1220.5" cy="637.5" r="1.5" fill="white"/>
<circle cx="1273.5" cy="637.5" r="1.5" fill="white"/>
<circle cx="1.5" cy="690.5" r="1.5" fill="white"/>
<circle cx="54.5" cy="690.5" r="1.5" fill="white"/>
<circle cx="107.5" cy="690.5" r="1.5" fill="white"/>
<circle cx="160.5" cy="690.5" r="1.5" fill="white"/>
<circle cx="213.5" cy="690.5" r="1.5" fill="white"/>
<circle cx="266.5" cy="690.5" r="1.5" fill="white"/>
<circle cx="319.5" cy="690.5" r="1.5" fill="white"/>
<circle cx="372.5" cy="690.5" r="1.5" fill="white"/>
<circle cx="425.5" cy="690.5" r="1.5" fill="white"/>
<circle cx="478.5" cy="690.5" r="1.5" fill="white"/>
<circle cx="531.5" cy="690.5" r="1.5" fill="white"/>
<circle cx="584.5" cy="690.5" r="1.5" fill="white"/>
<circle cx="637.5" cy="690.5" r="1.5" fill="white"/>
<circle cx="690.5" cy="690.5" r="1.5" fill="white"/>
<circle cx="743.5" cy="690.5" r="1.5" fill="white"/>
<circle cx="796.5" cy="690.5" r="1.5" fill="white"/>
<circle cx="849.5" cy="690.5" r="1.5" fill="white"/>
<circle cx="902.5" cy="690.5" r="1.5" fill="white"/>
<circle cx="955.5" cy="690.5" r="1.5" fill="white"/>
<circle cx="1008.5" cy="690.5" r="1.5" fill="white"/>
<circle cx="1061.5" cy="690.5" r="1.5" fill="white"/>
<circle cx="1114.5" cy="690.5" r="1.5" fill="white"/>
<circle cx="1167.5" cy="690.5" r="1.5" fill="white"/>
<circle cx="1220.5" cy="690.5" r="1.5" fill="white"/>
<circle cx="1273.5" cy="690.5" r="1.5" fill="white"/>
<circle cx="1.5" cy="743.5" r="1.5" fill="white"/>
<circle cx="54.5" cy="743.5" r="1.5" fill="white"/>
<circle cx="107.5" cy="743.5" r="1.5" fill="white"/>
<circle cx="160.5" cy="743.5" r="1.5" fill="white"/>
<circle cx="213.5" cy="743.5" r="1.5" fill="white"/>
<circle cx="266.5" cy="743.5" r="1.5" fill="white"/>
<circle cx="319.5" cy="743.5" r="1.5" fill="white"/>
<circle cx="372.5" cy="743.5" r="1.5" fill="white"/>
<circle cx="425.5" cy="743.5" r="1.5" fill="white"/>
<circle cx="478.5" cy="743.5" r="1.5" fill="white"/>
<circle cx="531.5" cy="743.5" r="1.5" fill="white"/>
<circle cx="584.5" cy="743.5" r="1.5" fill="white"/>
<circle cx="637.5" cy="743.5" r="1.5" fill="white"/>
<circle cx="690.5" cy="743.5" r="1.5" fill="white"/>
<circle cx="743.5" cy="743.5" r="1.5" fill="white"/>
<circle cx="796.5" cy="743.5" r="1.5" fill="white"/>
<circle cx="849.5" cy="743.5" r="1.5" fill="white"/>
<circle cx="902.5" cy="743.5" r="1.5" fill="white"/>
<circle cx="955.5" cy="743.5" r="1.5" fill="white"/>
<circle cx="1008.5" cy="743.5" r="1.5" fill="white"/>
<circle cx="1061.5" cy="743.5" r="1.5" fill="white"/>
<circle cx="1114.5" cy="743.5" r="1.5" fill="white"/>
<circle cx="1167.5" cy="743.5" r="1.5" fill="white"/>
<circle cx="1220.5" cy="743.5" r="1.5" fill="white"/>
<circle cx="1273.5" cy="743.5" r="1.5" fill="white"/>
<circle cx="1.5" cy="796.5" r="1.5" fill="white"/>
<circle cx="54.5" cy="796.5" r="1.5" fill="white"/>
<circle cx="107.5" cy="796.5" r="1.5" fill="white"/>
<circle cx="160.5" cy="796.5" r="1.5" fill="white"/>
<circle cx="213.5" cy="796.5" r="1.5" fill="white"/>
<circle cx="266.5" cy="796.5" r="1.5" fill="white"/>
<circle cx="319.5" cy="796.5" r="1.5" fill="white"/>
<circle cx="372.5" cy="796.5" r="1.5" fill="white"/>
<circle cx="425.5" cy="796.5" r="1.5" fill="white"/>
<circle cx="478.5" cy="796.5" r="1.5" fill="white"/>
<circle cx="531.5" cy="796.5" r="1.5" fill="white"/>
<circle cx="584.5" cy="796.5" r="1.5" fill="white"/>
<circle cx="637.5" cy="796.5" r="1.5" fill="white"/>
<circle cx="690.5" cy="796.5" r="1.5" fill="white"/>
<circle cx="743.5" cy="796.5" r="1.5" fill="white"/>
<circle cx="796.5" cy="796.5" r="1.5" fill="white"/>
<circle cx="849.5" cy="796.5" r="1.5" fill="white"/>
<circle cx="902.5" cy="796.5" r="1.5" fill="white"/>
<circle cx="955.5" cy="796.5" r="1.5" fill="white"/>
<circle cx="1008.5" cy="796.5" r="1.5" fill="white"/>
<circle cx="1061.5" cy="796.5" r="1.5" fill="white"/>
<circle cx="1114.5" cy="796.5" r="1.5" fill="white"/>
<circle cx="1167.5" cy="796.5" r="1.5" fill="white"/>
<circle cx="1220.5" cy="796.5" r="1.5" fill="white"/>
<circle cx="1273.5" cy="796.5" r="1.5" fill="white"/>
</g>
</g>
<defs>
<clipPath id="clip0_14_37170">
<rect width="1280" height="832" fill="white"/>
</clipPath>
<clipPath id="clip1_14_37170">
<rect width="1275" height="832" fill="white"/>
</clipPath>
</defs>
</svg>