<svg width="607" height="118" viewBox="0 0 607 118" fill="none" xmlns="http://www.w3.org/2000/svg">
<path d="M25.3352 15C25.2216 13.5795 24.6889 12.4716 23.7372 11.6761C22.7997 10.8807 21.3722 10.483 19.4545 10.483C18.233 10.483 17.2315 10.6321 16.4503 10.9304C15.6832 11.2145 15.1151 11.6051 14.7457 12.1023C14.3764 12.5994 14.1847 13.1676 14.1705 13.8068C14.142 14.3324 14.2344 14.8082 14.4474 15.2344C14.6747 15.6463 15.0298 16.0227 15.5128 16.3636C15.9957 16.6903 16.6136 16.9886 17.3665 17.2585C18.1193 17.5284 19.0142 17.7699 20.0511 17.983L23.6307 18.75C26.0455 19.2614 28.1122 19.9361 29.831 20.7741C31.5497 21.6122 32.956 22.5994 34.0497 23.7358C35.1435 24.858 35.946 26.1222 36.4574 27.5284C36.983 28.9347 37.2528 30.4687 37.267 32.1307C37.2528 35 36.5355 37.429 35.1151 39.4176C33.6946 41.4062 31.6634 42.919 29.0213 43.956C26.3935 44.9929 23.233 45.5114 19.5398 45.5114C15.7472 45.5114 12.4375 44.9503 9.6108 43.8281C6.7983 42.706 4.6108 40.9801 3.0483 38.6506C1.5 36.3068 0.71875 33.3097 0.704546 29.6591H11.9545C12.0256 30.9943 12.3594 32.1165 12.956 33.0256C13.5526 33.9347 14.3906 34.6236 15.4702 35.0923C16.5639 35.5611 17.8636 35.7955 19.3693 35.7955C20.6335 35.7955 21.6918 35.6392 22.544 35.3267C23.3963 35.0142 24.0426 34.581 24.483 34.027C24.9233 33.473 25.1506 32.8409 25.1648 32.1307C25.1506 31.4631 24.9304 30.8807 24.5043 30.3835C24.0923 29.8722 23.4105 29.4176 22.4588 29.0199C21.5071 28.608 20.2216 28.2244 18.6023 27.8693L14.2557 26.9318C10.392 26.0937 7.34517 24.6946 5.11506 22.7344C2.89915 20.7599 1.7983 18.0682 1.8125 14.6591C1.7983 11.8892 2.53693 9.46733 4.02841 7.39347C5.53409 5.3054 7.61506 3.67898 10.2713 2.5142C12.9418 1.34943 16.0028 0.767044 19.4545 0.767044C22.9773 0.767044 26.0241 1.35653 28.5952 2.53551C31.1662 3.71449 33.1477 5.37642 34.5398 7.52131C35.946 9.65199 36.6563 12.1449 36.6705 15H25.3352ZM37.5803 10.9091V1.36364H75.5064V10.9091H62.3814V45H50.7053V10.9091H37.5803ZM82.7923 45H70.0082L84.4116 1.36364H100.605L115.008 45H102.224L92.6786 13.3807H92.3377L82.7923 45ZM80.4059 27.7841H104.44V36.6477H80.4059V27.7841ZM116.211 45V1.36364H135.046C138.285 1.36364 141.119 1.95312 143.548 3.1321C145.977 4.31108 147.866 6.00852 149.215 8.22443C150.565 10.4403 151.239 13.0966 151.239 16.1932C151.239 19.3182 150.543 21.9531 149.151 24.098C147.773 26.2429 145.835 27.8622 143.335 28.956C140.849 30.0497 137.944 30.5966 134.62 30.5966H123.37V21.392H132.234C133.626 21.392 134.812 21.2216 135.792 20.8807C136.786 20.5256 137.546 19.9645 138.072 19.1974C138.612 18.4304 138.881 17.429 138.881 16.1932C138.881 14.9432 138.612 13.9276 138.072 13.1463C137.546 12.3509 136.786 11.7685 135.792 11.3991C134.812 11.0156 133.626 10.8239 132.234 10.8239H128.058V45H116.211ZM141.779 24.9716L152.688 45H139.819L129.165 24.9716H141.779ZM152.096 10.9091V1.36364H190.022V10.9091H176.897V45H165.221V10.9091H152.096ZM200.434 45V1.36364H212.28V35.4545H229.922V45H200.434ZM231.711 45V1.36364H263.16V10.9091H243.558V18.4091H261.54V27.9545H243.558V35.4545H263.075V45H231.711ZM277.37 45H264.586L278.99 1.36364H295.183L309.586 45H296.802L287.257 13.3807H286.916L277.37 45ZM274.984 27.7841H299.018V36.6477H274.984V27.7841ZM310.789 45V1.36364H329.624C332.863 1.36364 335.697 1.95312 338.126 3.1321C340.555 4.31108 342.444 6.00852 343.793 8.22443C345.143 10.4403 345.817 13.0966 345.817 16.1932C345.817 19.3182 345.121 21.9531 343.729 24.098C342.352 26.2429 340.413 27.8622 337.913 28.956C335.427 30.0497 332.522 30.5966 329.198 30.5966H317.948V21.392H326.812C328.204 21.392 329.39 21.2216 330.37 20.8807C331.364 20.5256 332.124 19.9645 332.65 19.1974C333.19 18.4304 333.46 17.429 333.46 16.1932C333.46 14.9432 333.19 13.9276 332.65 13.1463C332.124 12.3509 331.364 11.7685 330.37 11.3991C329.39 11.0156 328.204 10.8239 326.812 10.8239H322.636V45H310.789ZM336.357 24.9716L347.266 45H334.397L323.744 24.9716H336.357ZM385.623 1.36364V45H375.737L359.969 22.0739H359.714V45H347.867V1.36364H357.924L373.435 24.2045H373.776V1.36364H385.623ZM400.073 1.36364V45H388.227V1.36364H400.073ZM440.443 1.36364V45H430.557L414.79 22.0739H414.534V45H402.688V1.36364H412.744L428.256 24.2045H428.597V1.36364H440.443ZM471.385 15.767C471.2 15.0142 470.909 14.3537 470.511 13.7855C470.114 13.2031 469.616 12.7131 469.02 12.3153C468.438 11.9034 467.756 11.598 466.974 11.3991C466.207 11.1861 465.362 11.0795 464.439 11.0795C462.45 11.0795 460.753 11.5554 459.347 12.5071C457.955 13.4588 456.889 14.8295 456.151 16.6193C455.426 18.4091 455.064 20.5682 455.064 23.0966C455.064 25.6534 455.412 27.8409 456.108 29.6591C456.804 31.4773 457.841 32.8693 459.219 33.8352C460.597 34.8011 462.308 35.2841 464.354 35.2841C466.158 35.2841 467.656 35.0213 468.849 34.4957C470.057 33.9702 470.959 33.2244 471.555 32.2585C472.152 31.2926 472.45 30.1562 472.45 28.8494L474.496 29.0625H464.524V20.625H483.871V26.6761C483.871 30.6534 483.026 34.0554 481.335 36.8821C479.659 39.6946 477.344 41.8537 474.389 43.3594C471.449 44.8509 468.075 45.5966 464.268 45.5966C460.021 45.5966 456.293 44.6946 453.082 42.8906C449.872 41.0866 447.365 38.5156 445.561 35.1776C443.771 31.8395 442.876 27.8693 442.876 23.267C442.876 19.6591 443.423 16.4631 444.517 13.679C445.625 10.8949 447.159 8.54403 449.119 6.62642C451.08 4.6946 453.345 3.23864 455.916 2.25852C458.487 1.2642 461.243 0.767044 464.183 0.767044C466.768 0.767044 469.169 1.13636 471.385 1.875C473.615 2.59943 475.582 3.63636 477.287 4.98579C479.006 6.32102 480.391 7.90483 481.442 9.73722C482.493 11.5696 483.132 13.5795 483.359 15.767H471.385ZM494.154 10.9091V1.36364H532.081V10.9091H518.956V45H507.279V10.9091H494.154ZM533.539 45V1.36364H545.386V18.4091H561.067V1.36364H572.914V45H561.067V27.9545H545.386V45H533.539ZM575.539 45V1.36364H606.988V10.9091H587.386V18.4091H605.369V27.9545H587.386V35.4545H606.903V45H575.539ZM1.8125 118V74.3636H20.733C24.0568 74.3636 26.848 74.8111 29.1065 75.706C31.3793 76.6009 33.0909 77.8651 34.2415 79.4986C35.4063 81.1321 35.9886 83.0568 35.9886 85.2727C35.9886 86.8778 35.6335 88.3409 34.9233 89.6619C34.2273 90.983 33.2472 92.0909 31.983 92.9858C30.7188 93.8665 29.2415 94.4773 27.5511 94.8182V95.2443C29.4261 95.3153 31.1307 95.7912 32.6648 96.6719C34.1989 97.5384 35.4205 98.7386 36.3295 100.273C37.2386 101.793 37.6932 103.582 37.6932 105.642C37.6932 108.028 37.0682 110.152 35.8182 112.013C34.5824 113.874 32.821 115.337 30.5341 116.402C28.2472 117.467 25.5199 118 22.3523 118H1.8125ZM13.6591 108.54H19.1989C21.1875 108.54 22.679 108.17 23.6733 107.432C24.6676 106.679 25.1648 105.571 25.1648 104.108C25.1648 103.085 24.9304 102.219 24.4616 101.509C23.9929 100.798 23.3253 100.259 22.4588 99.8892C21.6065 99.5199 20.5767 99.3352 19.3693 99.3352H13.6591V108.54ZM13.6591 92.0057H18.517C19.554 92.0057 20.4702 91.8423 21.2656 91.5156C22.0611 91.1889 22.679 90.7202 23.1193 90.1094C23.5739 89.4844 23.8011 88.7244 23.8011 87.8295C23.8011 86.4801 23.3182 85.4503 22.3523 84.7401C21.3864 84.0156 20.1648 83.6534 18.6875 83.6534H13.6591V92.0057ZM38.8906 118V74.3636H70.3395V83.9091H50.7372V91.4091H68.7202V100.955H50.7372V108.455H70.2543V118H38.8906ZM72.0217 83.9091V74.3636H109.948V83.9091H96.8228V118H85.1467V83.9091H72.0217ZM110.213 83.9091V74.3636H148.139V83.9091H135.014V118H123.338V83.9091H110.213ZM149.598 118V74.3636H181.047V83.9091H161.444V91.4091H179.427V100.955H161.444V108.455H180.961V118H149.598ZM183.922 118V74.3636H202.757C205.996 74.3636 208.83 74.9531 211.259 76.1321C213.688 77.3111 215.577 79.0085 216.926 81.2244C218.276 83.4403 218.95 86.0966 218.95 89.1932C218.95 92.3182 218.254 94.9531 216.862 97.098C215.484 99.2429 213.545 100.862 211.045 101.956C208.56 103.05 205.655 103.597 202.331 103.597H191.081V94.392H199.945C201.337 94.392 202.523 94.2216 203.503 93.8807C204.497 93.5256 205.257 92.9645 205.783 92.1974C206.322 91.4304 206.592 90.429 206.592 89.1932C206.592 87.9432 206.322 86.9276 205.783 86.1463C205.257 85.3509 204.497 84.7685 203.503 84.3991C202.523 84.0156 201.337 83.8239 199.945 83.8239H195.768V118H183.922ZM209.49 97.9716L220.399 118H207.53L196.876 97.9716H209.49ZM241.033 118L228.163 74.3636H241.374L247.339 101.21H247.68L254.754 74.3636H265.152L272.226 101.295H272.567L278.533 74.3636H291.743L278.874 118H267.538L260.124 93.625H259.783L252.368 118H241.033ZM298.816 118H286.032L300.435 74.3636H316.628L331.032 118H318.248L308.702 86.3807H308.361L298.816 118ZM296.429 100.784H320.463V109.648H296.429V100.784ZM325.991 74.3636H339.202L347.724 92.0909H348.065L356.588 74.3636H369.798L353.776 104.278V118H342.014V104.278L325.991 74.3636Z" fill="white"/>
</svg>
