<svg width="1280" height="832" viewBox="0 0 1280 832" fill="none" xmlns="http://www.w3.org/2000/svg">
<g clip-path="url(#clip0_4_209)">
<rect width="1280" height="832" fill="#0099FF"/>
<path fill-rule="evenodd" clip-rule="evenodd" d="M1585 354L1546.94 360.938C1507.06 369.033 1430.94 382.909 1353 406.036C1275.06 428.007 1198.94 456.915 1121 480.042C1043.06 502.013 966.938 517.046 889 502.013C811.062 486.98 734.938 443.039 657 412.974C579.062 382.909 502.938 369.033 425 375.971C347.062 382.909 270.938 412.974 193 471.948C115.062 530.922 38.9375 619.961 -39 604.928C-116.938 591.052 -193.062 471.948 -271 428.007C-348.938 382.909 -425.062 412.974 -503 428.007C-580.938 443.039 -657.062 443.039 -696.938 443.039H-735V709H-696.938C-657.062 709 -580.938 709 -503 709C-425.062 709 -348.938 709 -271 709C-193.062 709 -116.938 709 -39 709C38.9375 709 115.062 709 193 709C270.938 709 347.062 709 425 709C502.938 709 579.062 709 657 709C734.938 709 811.062 709 889 709C966.938 709 1043.06 709 1121 709C1198.94 709 1275.06 709 1353 709C1430.94 709 1507.06 709 1546.94 709H1585V354Z" fill="#0065A9"/>
<path fill-rule="evenodd" clip-rule="evenodd" d="M0 546.833H27C53 546.833 107 546.833 160 562.584C213 578.335 267 610.665 320 610.665C373 610.665 427 578.335 480 546.833C533 515.331 587 483 640 483C693 483 747 515.331 800 551.807C853 589.112 907 631.39 960 642.167C1013 652.944 1067 631.39 1120 626.416C1173 621.442 1227 631.39 1253 637.193L1280 642.167V706H1253C1227 706 1173 706 1120 706C1067 706 1013 706 960 706C907 706 853 706 800 706C747 706 693 706 640 706C587 706 533 706 480 706C427 706 373 706 320 706C267 706 213 706 160 706C107 706 53 706 27 706H0V546.833Z" fill="#007CCF"/>
<path fill-rule="evenodd" clip-rule="evenodd" d="M0 646.022L43 610.5C85 574.043 171 503 256 503C341 503 427 574.043 512 592.739C597 610.5 683 574.043 768 574.043C853 574.043 939 610.5 1024 628.261C1109 646.022 1195 646.022 1237 646.022H1280V718H1237C1195 718 1109 718 1024 718C939 718 853 718 768 718C683 718 597 718 512 718C427 718 341 718 256 718C171 718 85 718 43 718H0V646.022Z" fill="#0099FF"/>
<path fill-rule="evenodd" clip-rule="evenodd" d="M1585 354L1546.94 360.938C1507.06 369.033 1430.94 382.909 1353 406.036C1275.06 428.007 1198.94 456.915 1121 480.042C1043.06 502.013 966.938 517.046 889 502.013C811.062 486.98 734.938 443.039 657 412.974C579.062 382.909 502.938 369.033 425 375.971C347.062 382.909 270.938 412.974 193 471.948C115.062 530.922 38.9375 619.961 -39 604.928C-116.938 591.052 -193.062 471.948 -271 428.007C-348.938 382.909 -425.062 412.974 -503 428.007C-580.938 443.039 -657.062 443.039 -696.938 443.039H-735V709H-696.938C-657.062 709 -580.938 709 -503 709C-425.062 709 -348.938 709 -271 709C-193.062 709 -116.938 709 -39 709C38.9375 709 115.062 709 193 709C270.938 709 347.062 709 425 709C502.938 709 579.062 709 657 709C734.938 709 811.062 709 889 709C966.938 709 1043.06 709 1121 709C1198.94 709 1275.06 709 1353 709C1430.94 709 1507.06 709 1546.94 709H1585V354Z" stroke="black"/>
<path fill-rule="evenodd" clip-rule="evenodd" d="M0 546.833H27C53 546.833 107 546.833 160 562.584C213 578.335 267 610.665 320 610.665C373 610.665 427 578.335 480 546.833C533 515.331 587 483 640 483C693 483 747 515.331 800 551.807C853 589.112 907 631.39 960 642.167C1013 652.944 1067 631.39 1120 626.416C1173 621.442 1227 631.39 1253 637.193L1280 642.167V706H1253C1227 706 1173 706 1120 706C1067 706 1013 706 960 706C907 706 853 706 800 706C747 706 693 706 640 706C587 706 533 706 480 706C427 706 373 706 320 706C267 706 213 706 160 706C107 706 53 706 27 706H0V546.833Z" stroke="black"/>
<path fill-rule="evenodd" clip-rule="evenodd" d="M0 646.022L43 610.5C85 574.043 171 503 256 503C341 503 427 574.043 512 592.739C597 610.5 683 574.043 768 574.043C853 574.043 939 610.5 1024 628.261C1109 646.022 1195 646.022 1237 646.022H1280V718H1237C1195 718 1109 718 1024 718C939 718 853 718 768 718C683 718 597 718 512 718C427 718 341 718 256 718C171 718 85 718 43 718H0V646.022Z" stroke="black"/>
<path d="M56 473.5C56 474.328 55.3284 475 54.5 475C53.6716 475 53 474.328 53 473.5C53 472.672 53.6716 472 54.5 472C55.3284 472 56 472.672 56 473.5Z" fill="#D2D6DB"/>
<path d="M65 473.5C65 474.328 64.3284 475 63.5 475C62.6716 475 62 474.328 62 473.5C62 472.672 62.6716 472 63.5 472C64.3284 472 65 472.672 65 473.5Z" fill="#D2D6DB"/>
<path d="M74 473.5C74 474.328 73.3284 475 72.5 475C71.6716 475 71 474.328 71 473.5C71 472.672 71.6716 472 72.5 472C73.3284 472 74 472.672 74 473.5Z" fill="#D2D6DB"/>
<path d="M83 473.5C83 474.328 82.3284 475 81.5 475C80.6716 475 80 474.328 80 473.5C80 472.672 80.6716 472 81.5 472C82.3284 472 83 472.672 83 473.5Z" fill="#D2D6DB"/>
<path d="M92 473.5C92 474.328 91.3284 475 90.5 475C89.6716 475 89 474.328 89 473.5C89 472.672 89.6716 472 90.5 472C91.3284 472 92 472.672 92 473.5Z" fill="#D2D6DB"/>
<path d="M101 473.5C101 474.328 100.328 475 99.5 475C98.6716 475 98 474.328 98 473.5C98 472.672 98.6716 472 99.5 472C100.328 472 101 472.672 101 473.5Z" fill="#D2D6DB"/>
<path d="M110 473.5C110 474.328 109.328 475 108.5 475C107.672 475 107 474.328 107 473.5C107 472.672 107.672 472 108.5 472C109.328 472 110 472.672 110 473.5Z" fill="#D2D6DB"/>
<path d="M119 473.5C119 474.328 118.328 475 117.5 475C116.672 475 116 474.328 116 473.5C116 472.672 116.672 472 117.5 472C118.328 472 119 472.672 119 473.5Z" fill="#D2D6DB"/>
<path d="M128 473.5C128 474.328 127.328 475 126.5 475C125.672 475 125 474.328 125 473.5C125 472.672 125.672 472 126.5 472C127.328 472 128 472.672 128 473.5Z" fill="#D2D6DB"/>
<path d="M137 473.5C137 474.328 136.328 475 135.5 475C134.672 475 134 474.328 134 473.5C134 472.672 134.672 472 135.5 472C136.328 472 137 472.672 137 473.5Z" fill="#D2D6DB"/>
<path d="M146 473.5C146 474.328 145.328 475 144.5 475C143.672 475 143 474.328 143 473.5C143 472.672 143.672 472 144.5 472C145.328 472 146 472.672 146 473.5Z" fill="#D2D6DB"/>
<path d="M155 473.5C155 474.328 154.328 475 153.5 475C152.672 475 152 474.328 152 473.5C152 472.672 152.672 472 153.5 472C154.328 472 155 472.672 155 473.5Z" fill="#D2D6DB"/>
<path d="M164 473.5C164 474.328 163.328 475 162.5 475C161.672 475 161 474.328 161 473.5C161 472.672 161.672 472 162.5 472C163.328 472 164 472.672 164 473.5Z" fill="#D2D6DB"/>
<path d="M173 473.5C173 474.328 172.328 475 171.5 475C170.672 475 170 474.328 170 473.5C170 472.672 170.672 472 171.5 472C172.328 472 173 472.672 173 473.5Z" fill="#D2D6DB"/>
<path d="M182 473.5C182 474.328 181.328 475 180.5 475C179.672 475 179 474.328 179 473.5C179 472.672 179.672 472 180.5 472C181.328 472 182 472.672 182 473.5Z" fill="#D2D6DB"/>
<path d="M191 473.5C191 474.328 190.328 475 189.5 475C188.672 475 188 474.328 188 473.5C188 472.672 188.672 472 189.5 472C190.328 472 191 472.672 191 473.5Z" fill="#D2D6DB"/>
<path d="M200 473.5C200 474.328 199.328 475 198.5 475C197.672 475 197 474.328 197 473.5C197 472.672 197.672 472 198.5 472C199.328 472 200 472.672 200 473.5Z" fill="#D2D6DB"/>
<path d="M209 473.5C209 474.328 208.328 475 207.5 475C206.672 475 206 474.328 206 473.5C206 472.672 206.672 472 207.5 472C208.328 472 209 472.672 209 473.5Z" fill="#D2D6DB"/>
<path d="M218 473.5C218 474.328 217.328 475 216.5 475C215.672 475 215 474.328 215 473.5C215 472.672 215.672 472 216.5 472C217.328 472 218 472.672 218 473.5Z" fill="#D2D6DB"/>
<path d="M227 473.5C227 474.328 226.328 475 225.5 475C224.672 475 224 474.328 224 473.5C224 472.672 224.672 472 225.5 472C226.328 472 227 472.672 227 473.5Z" fill="#D2D6DB"/>
<path d="M236 473.5C236 474.328 235.328 475 234.5 475C233.672 475 233 474.328 233 473.5C233 472.672 233.672 472 234.5 472C235.328 472 236 472.672 236 473.5Z" fill="#D2D6DB"/>
<path d="M245 473.5C245 474.328 244.328 475 243.5 475C242.672 475 242 474.328 242 473.5C242 472.672 242.672 472 243.5 472C244.328 472 245 472.672 245 473.5Z" fill="#D2D6DB"/>
<path d="M56 482.5C56 483.328 55.3284 484 54.5 484C53.6716 484 53 483.328 53 482.5C53 481.672 53.6716 481 54.5 481C55.3284 481 56 481.672 56 482.5Z" fill="#D2D6DB"/>
<path d="M65 482.5C65 483.328 64.3284 484 63.5 484C62.6716 484 62 483.328 62 482.5C62 481.672 62.6716 481 63.5 481C64.3284 481 65 481.672 65 482.5Z" fill="#D2D6DB"/>
<path d="M74 482.5C74 483.328 73.3284 484 72.5 484C71.6716 484 71 483.328 71 482.5C71 481.672 71.6716 481 72.5 481C73.3284 481 74 481.672 74 482.5Z" fill="#D2D6DB"/>
<path d="M83 482.5C83 483.328 82.3284 484 81.5 484C80.6716 484 80 483.328 80 482.5C80 481.672 80.6716 481 81.5 481C82.3284 481 83 481.672 83 482.5Z" fill="#D2D6DB"/>
<path d="M92 482.5C92 483.328 91.3284 484 90.5 484C89.6716 484 89 483.328 89 482.5C89 481.672 89.6716 481 90.5 481C91.3284 481 92 481.672 92 482.5Z" fill="#D2D6DB"/>
<path d="M101 482.5C101 483.328 100.328 484 99.5 484C98.6716 484 98 483.328 98 482.5C98 481.672 98.6716 481 99.5 481C100.328 481 101 481.672 101 482.5Z" fill="#D2D6DB"/>
<path d="M110 482.5C110 483.328 109.328 484 108.5 484C107.672 484 107 483.328 107 482.5C107 481.672 107.672 481 108.5 481C109.328 481 110 481.672 110 482.5Z" fill="#D2D6DB"/>
<path d="M119 482.5C119 483.328 118.328 484 117.5 484C116.672 484 116 483.328 116 482.5C116 481.672 116.672 481 117.5 481C118.328 481 119 481.672 119 482.5Z" fill="#D2D6DB"/>
<path d="M128 482.5C128 483.328 127.328 484 126.5 484C125.672 484 125 483.328 125 482.5C125 481.672 125.672 481 126.5 481C127.328 481 128 481.672 128 482.5Z" fill="#D2D6DB"/>
<path d="M137 482.5C137 483.328 136.328 484 135.5 484C134.672 484 134 483.328 134 482.5C134 481.672 134.672 481 135.5 481C136.328 481 137 481.672 137 482.5Z" fill="#D2D6DB"/>
<path d="M146 482.5C146 483.328 145.328 484 144.5 484C143.672 484 143 483.328 143 482.5C143 481.672 143.672 481 144.5 481C145.328 481 146 481.672 146 482.5Z" fill="#D2D6DB"/>
<path d="M155 482.5C155 483.328 154.328 484 153.5 484C152.672 484 152 483.328 152 482.5C152 481.672 152.672 481 153.5 481C154.328 481 155 481.672 155 482.5Z" fill="#D2D6DB"/>
<path d="M164 482.5C164 483.328 163.328 484 162.5 484C161.672 484 161 483.328 161 482.5C161 481.672 161.672 481 162.5 481C163.328 481 164 481.672 164 482.5Z" fill="#D2D6DB"/>
<path d="M173 482.5C173 483.328 172.328 484 171.5 484C170.672 484 170 483.328 170 482.5C170 481.672 170.672 481 171.5 481C172.328 481 173 481.672 173 482.5Z" fill="#D2D6DB"/>
<path d="M182 482.5C182 483.328 181.328 484 180.5 484C179.672 484 179 483.328 179 482.5C179 481.672 179.672 481 180.5 481C181.328 481 182 481.672 182 482.5Z" fill="#D2D6DB"/>
<path d="M191 482.5C191 483.328 190.328 484 189.5 484C188.672 484 188 483.328 188 482.5C188 481.672 188.672 481 189.5 481C190.328 481 191 481.672 191 482.5Z" fill="#D2D6DB"/>
<path d="M200 482.5C200 483.328 199.328 484 198.5 484C197.672 484 197 483.328 197 482.5C197 481.672 197.672 481 198.5 481C199.328 481 200 481.672 200 482.5Z" fill="#D2D6DB"/>
<path d="M209 482.5C209 483.328 208.328 484 207.5 484C206.672 484 206 483.328 206 482.5C206 481.672 206.672 481 207.5 481C208.328 481 209 481.672 209 482.5Z" fill="#D2D6DB"/>
<path d="M218 482.5C218 483.328 217.328 484 216.5 484C215.672 484 215 483.328 215 482.5C215 481.672 215.672 481 216.5 481C217.328 481 218 481.672 218 482.5Z" fill="#D2D6DB"/>
<path d="M227 482.5C227 483.328 226.328 484 225.5 484C224.672 484 224 483.328 224 482.5C224 481.672 224.672 481 225.5 481C226.328 481 227 481.672 227 482.5Z" fill="#D2D6DB"/>
<path d="M236 482.5C236 483.328 235.328 484 234.5 484C233.672 484 233 483.328 233 482.5C233 481.672 233.672 481 234.5 481C235.328 481 236 481.672 236 482.5Z" fill="#D2D6DB"/>
<path d="M245 482.5C245 483.328 244.328 484 243.5 484C242.672 484 242 483.328 242 482.5C242 481.672 242.672 481 243.5 481C244.328 481 245 481.672 245 482.5Z" fill="#D2D6DB"/>
<path d="M56 491.5C56 492.328 55.3284 493 54.5 493C53.6716 493 53 492.328 53 491.5C53 490.672 53.6716 490 54.5 490C55.3284 490 56 490.672 56 491.5Z" fill="#D2D6DB"/>
<path d="M65 491.5C65 492.328 64.3284 493 63.5 493C62.6716 493 62 492.328 62 491.5C62 490.672 62.6716 490 63.5 490C64.3284 490 65 490.672 65 491.5Z" fill="#D2D6DB"/>
<path d="M74 491.5C74 492.328 73.3284 493 72.5 493C71.6716 493 71 492.328 71 491.5C71 490.672 71.6716 490 72.5 490C73.3284 490 74 490.672 74 491.5Z" fill="#D2D6DB"/>
<path d="M83 491.5C83 492.328 82.3284 493 81.5 493C80.6716 493 80 492.328 80 491.5C80 490.672 80.6716 490 81.5 490C82.3284 490 83 490.672 83 491.5Z" fill="#D2D6DB"/>
<path d="M92 491.5C92 492.328 91.3284 493 90.5 493C89.6716 493 89 492.328 89 491.5C89 490.672 89.6716 490 90.5 490C91.3284 490 92 490.672 92 491.5Z" fill="#D2D6DB"/>
<path d="M101 491.5C101 492.328 100.328 493 99.5 493C98.6716 493 98 492.328 98 491.5C98 490.672 98.6716 490 99.5 490C100.328 490 101 490.672 101 491.5Z" fill="#D2D6DB"/>
<path d="M110 491.5C110 492.328 109.328 493 108.5 493C107.672 493 107 492.328 107 491.5C107 490.672 107.672 490 108.5 490C109.328 490 110 490.672 110 491.5Z" fill="#D2D6DB"/>
<path d="M119 491.5C119 492.328 118.328 493 117.5 493C116.672 493 116 492.328 116 491.5C116 490.672 116.672 490 117.5 490C118.328 490 119 490.672 119 491.5Z" fill="#D2D6DB"/>
<path d="M128 491.5C128 492.328 127.328 493 126.5 493C125.672 493 125 492.328 125 491.5C125 490.672 125.672 490 126.5 490C127.328 490 128 490.672 128 491.5Z" fill="#D2D6DB"/>
<path d="M137 491.5C137 492.328 136.328 493 135.5 493C134.672 493 134 492.328 134 491.5C134 490.672 134.672 490 135.5 490C136.328 490 137 490.672 137 491.5Z" fill="#D2D6DB"/>
<path d="M146 491.5C146 492.328 145.328 493 144.5 493C143.672 493 143 492.328 143 491.5C143 490.672 143.672 490 144.5 490C145.328 490 146 490.672 146 491.5Z" fill="#D2D6DB"/>
<path d="M155 491.5C155 492.328 154.328 493 153.5 493C152.672 493 152 492.328 152 491.5C152 490.672 152.672 490 153.5 490C154.328 490 155 490.672 155 491.5Z" fill="#D2D6DB"/>
<path d="M164 491.5C164 492.328 163.328 493 162.5 493C161.672 493 161 492.328 161 491.5C161 490.672 161.672 490 162.5 490C163.328 490 164 490.672 164 491.5Z" fill="#D2D6DB"/>
<path d="M173 491.5C173 492.328 172.328 493 171.5 493C170.672 493 170 492.328 170 491.5C170 490.672 170.672 490 171.5 490C172.328 490 173 490.672 173 491.5Z" fill="#D2D6DB"/>
<path d="M182 491.5C182 492.328 181.328 493 180.5 493C179.672 493 179 492.328 179 491.5C179 490.672 179.672 490 180.5 490C181.328 490 182 490.672 182 491.5Z" fill="#D2D6DB"/>
<path d="M191 491.5C191 492.328 190.328 493 189.5 493C188.672 493 188 492.328 188 491.5C188 490.672 188.672 490 189.5 490C190.328 490 191 490.672 191 491.5Z" fill="#D2D6DB"/>
<path d="M200 491.5C200 492.328 199.328 493 198.5 493C197.672 493 197 492.328 197 491.5C197 490.672 197.672 490 198.5 490C199.328 490 200 490.672 200 491.5Z" fill="#D2D6DB"/>
<path d="M209 491.5C209 492.328 208.328 493 207.5 493C206.672 493 206 492.328 206 491.5C206 490.672 206.672 490 207.5 490C208.328 490 209 490.672 209 491.5Z" fill="#D2D6DB"/>
<path d="M218 491.5C218 492.328 217.328 493 216.5 493C215.672 493 215 492.328 215 491.5C215 490.672 215.672 490 216.5 490C217.328 490 218 490.672 218 491.5Z" fill="#D2D6DB"/>
<path d="M227 491.5C227 492.328 226.328 493 225.5 493C224.672 493 224 492.328 224 491.5C224 490.672 224.672 490 225.5 490C226.328 490 227 490.672 227 491.5Z" fill="#D2D6DB"/>
<path d="M236 491.5C236 492.328 235.328 493 234.5 493C233.672 493 233 492.328 233 491.5C233 490.672 233.672 490 234.5 490C235.328 490 236 490.672 236 491.5Z" fill="#D2D6DB"/>
<path d="M245 491.5C245 492.328 244.328 493 243.5 493C242.672 493 242 492.328 242 491.5C242 490.672 242.672 490 243.5 490C244.328 490 245 490.672 245 491.5Z" fill="#D2D6DB"/>
<path d="M56 500.5C56 501.328 55.3284 502 54.5 502C53.6716 502 53 501.328 53 500.5C53 499.672 53.6716 499 54.5 499C55.3284 499 56 499.672 56 500.5Z" fill="#D2D6DB"/>
<path d="M65 500.5C65 501.328 64.3284 502 63.5 502C62.6716 502 62 501.328 62 500.5C62 499.672 62.6716 499 63.5 499C64.3284 499 65 499.672 65 500.5Z" fill="#D2D6DB"/>
<path d="M74 500.5C74 501.328 73.3284 502 72.5 502C71.6716 502 71 501.328 71 500.5C71 499.672 71.6716 499 72.5 499C73.3284 499 74 499.672 74 500.5Z" fill="#D2D6DB"/>
<path d="M83 500.5C83 501.328 82.3284 502 81.5 502C80.6716 502 80 501.328 80 500.5C80 499.672 80.6716 499 81.5 499C82.3284 499 83 499.672 83 500.5Z" fill="#D2D6DB"/>
<path d="M92 500.5C92 501.328 91.3284 502 90.5 502C89.6716 502 89 501.328 89 500.5C89 499.672 89.6716 499 90.5 499C91.3284 499 92 499.672 92 500.5Z" fill="#D2D6DB"/>
<path d="M101 500.5C101 501.328 100.328 502 99.5 502C98.6716 502 98 501.328 98 500.5C98 499.672 98.6716 499 99.5 499C100.328 499 101 499.672 101 500.5Z" fill="#D2D6DB"/>
<path d="M110 500.5C110 501.328 109.328 502 108.5 502C107.672 502 107 501.328 107 500.5C107 499.672 107.672 499 108.5 499C109.328 499 110 499.672 110 500.5Z" fill="#D2D6DB"/>
<path d="M119 500.5C119 501.328 118.328 502 117.5 502C116.672 502 116 501.328 116 500.5C116 499.672 116.672 499 117.5 499C118.328 499 119 499.672 119 500.5Z" fill="#D2D6DB"/>
<path d="M128 500.5C128 501.328 127.328 502 126.5 502C125.672 502 125 501.328 125 500.5C125 499.672 125.672 499 126.5 499C127.328 499 128 499.672 128 500.5Z" fill="#D2D6DB"/>
<path d="M137 500.5C137 501.328 136.328 502 135.5 502C134.672 502 134 501.328 134 500.5C134 499.672 134.672 499 135.5 499C136.328 499 137 499.672 137 500.5Z" fill="#D2D6DB"/>
<path d="M146 500.5C146 501.328 145.328 502 144.5 502C143.672 502 143 501.328 143 500.5C143 499.672 143.672 499 144.5 499C145.328 499 146 499.672 146 500.5Z" fill="#D2D6DB"/>
<path d="M155 500.5C155 501.328 154.328 502 153.5 502C152.672 502 152 501.328 152 500.5C152 499.672 152.672 499 153.5 499C154.328 499 155 499.672 155 500.5Z" fill="#D2D6DB"/>
<path d="M164 500.5C164 501.328 163.328 502 162.5 502C161.672 502 161 501.328 161 500.5C161 499.672 161.672 499 162.5 499C163.328 499 164 499.672 164 500.5Z" fill="#D2D6DB"/>
<path d="M173 500.5C173 501.328 172.328 502 171.5 502C170.672 502 170 501.328 170 500.5C170 499.672 170.672 499 171.5 499C172.328 499 173 499.672 173 500.5Z" fill="#D2D6DB"/>
<path d="M182 500.5C182 501.328 181.328 502 180.5 502C179.672 502 179 501.328 179 500.5C179 499.672 179.672 499 180.5 499C181.328 499 182 499.672 182 500.5Z" fill="#D2D6DB"/>
<path d="M191 500.5C191 501.328 190.328 502 189.5 502C188.672 502 188 501.328 188 500.5C188 499.672 188.672 499 189.5 499C190.328 499 191 499.672 191 500.5Z" fill="#D2D6DB"/>
<path d="M200 500.5C200 501.328 199.328 502 198.5 502C197.672 502 197 501.328 197 500.5C197 499.672 197.672 499 198.5 499C199.328 499 200 499.672 200 500.5Z" fill="#D2D6DB"/>
<path d="M209 500.5C209 501.328 208.328 502 207.5 502C206.672 502 206 501.328 206 500.5C206 499.672 206.672 499 207.5 499C208.328 499 209 499.672 209 500.5Z" fill="#D2D6DB"/>
<path d="M218 500.5C218 501.328 217.328 502 216.5 502C215.672 502 215 501.328 215 500.5C215 499.672 215.672 499 216.5 499C217.328 499 218 499.672 218 500.5Z" fill="#D2D6DB"/>
<path d="M227 500.5C227 501.328 226.328 502 225.5 502C224.672 502 224 501.328 224 500.5C224 499.672 224.672 499 225.5 499C226.328 499 227 499.672 227 500.5Z" fill="#D2D6DB"/>
<path d="M236 500.5C236 501.328 235.328 502 234.5 502C233.672 502 233 501.328 233 500.5C233 499.672 233.672 499 234.5 499C235.328 499 236 499.672 236 500.5Z" fill="#D2D6DB"/>
<path d="M245 500.5C245 501.328 244.328 502 243.5 502C242.672 502 242 501.328 242 500.5C242 499.672 242.672 499 243.5 499C244.328 499 245 499.672 245 500.5Z" fill="#D2D6DB"/>
<path d="M56 509.5C56 510.328 55.3284 511 54.5 511C53.6716 511 53 510.328 53 509.5C53 508.672 53.6716 508 54.5 508C55.3284 508 56 508.672 56 509.5Z" fill="#D2D6DB"/>
<path d="M65 509.5C65 510.328 64.3284 511 63.5 511C62.6716 511 62 510.328 62 509.5C62 508.672 62.6716 508 63.5 508C64.3284 508 65 508.672 65 509.5Z" fill="#D2D6DB"/>
<path d="M74 509.5C74 510.328 73.3284 511 72.5 511C71.6716 511 71 510.328 71 509.5C71 508.672 71.6716 508 72.5 508C73.3284 508 74 508.672 74 509.5Z" fill="#D2D6DB"/>
<path d="M83 509.5C83 510.328 82.3284 511 81.5 511C80.6716 511 80 510.328 80 509.5C80 508.672 80.6716 508 81.5 508C82.3284 508 83 508.672 83 509.5Z" fill="#D2D6DB"/>
<path d="M92 509.5C92 510.328 91.3284 511 90.5 511C89.6716 511 89 510.328 89 509.5C89 508.672 89.6716 508 90.5 508C91.3284 508 92 508.672 92 509.5Z" fill="#D2D6DB"/>
<path d="M101 509.5C101 510.328 100.328 511 99.5 511C98.6716 511 98 510.328 98 509.5C98 508.672 98.6716 508 99.5 508C100.328 508 101 508.672 101 509.5Z" fill="#D2D6DB"/>
<path d="M110 509.5C110 510.328 109.328 511 108.5 511C107.672 511 107 510.328 107 509.5C107 508.672 107.672 508 108.5 508C109.328 508 110 508.672 110 509.5Z" fill="#D2D6DB"/>
<path d="M119 509.5C119 510.328 118.328 511 117.5 511C116.672 511 116 510.328 116 509.5C116 508.672 116.672 508 117.5 508C118.328 508 119 508.672 119 509.5Z" fill="#D2D6DB"/>
<path d="M128 509.5C128 510.328 127.328 511 126.5 511C125.672 511 125 510.328 125 509.5C125 508.672 125.672 508 126.5 508C127.328 508 128 508.672 128 509.5Z" fill="#D2D6DB"/>
<path d="M137 509.5C137 510.328 136.328 511 135.5 511C134.672 511 134 510.328 134 509.5C134 508.672 134.672 508 135.5 508C136.328 508 137 508.672 137 509.5Z" fill="#D2D6DB"/>
<path d="M146 509.5C146 510.328 145.328 511 144.5 511C143.672 511 143 510.328 143 509.5C143 508.672 143.672 508 144.5 508C145.328 508 146 508.672 146 509.5Z" fill="#D2D6DB"/>
<path d="M155 509.5C155 510.328 154.328 511 153.5 511C152.672 511 152 510.328 152 509.5C152 508.672 152.672 508 153.5 508C154.328 508 155 508.672 155 509.5Z" fill="#D2D6DB"/>
<path d="M164 509.5C164 510.328 163.328 511 162.5 511C161.672 511 161 510.328 161 509.5C161 508.672 161.672 508 162.5 508C163.328 508 164 508.672 164 509.5Z" fill="#D2D6DB"/>
<path d="M173 509.5C173 510.328 172.328 511 171.5 511C170.672 511 170 510.328 170 509.5C170 508.672 170.672 508 171.5 508C172.328 508 173 508.672 173 509.5Z" fill="#D2D6DB"/>
<path d="M182 509.5C182 510.328 181.328 511 180.5 511C179.672 511 179 510.328 179 509.5C179 508.672 179.672 508 180.5 508C181.328 508 182 508.672 182 509.5Z" fill="#D2D6DB"/>
<path d="M191 509.5C191 510.328 190.328 511 189.5 511C188.672 511 188 510.328 188 509.5C188 508.672 188.672 508 189.5 508C190.328 508 191 508.672 191 509.5Z" fill="#D2D6DB"/>
<path d="M200 509.5C200 510.328 199.328 511 198.5 511C197.672 511 197 510.328 197 509.5C197 508.672 197.672 508 198.5 508C199.328 508 200 508.672 200 509.5Z" fill="#D2D6DB"/>
<path d="M209 509.5C209 510.328 208.328 511 207.5 511C206.672 511 206 510.328 206 509.5C206 508.672 206.672 508 207.5 508C208.328 508 209 508.672 209 509.5Z" fill="#D2D6DB"/>
<path d="M218 509.5C218 510.328 217.328 511 216.5 511C215.672 511 215 510.328 215 509.5C215 508.672 215.672 508 216.5 508C217.328 508 218 508.672 218 509.5Z" fill="#D2D6DB"/>
<path d="M227 509.5C227 510.328 226.328 511 225.5 511C224.672 511 224 510.328 224 509.5C224 508.672 224.672 508 225.5 508C226.328 508 227 508.672 227 509.5Z" fill="#D2D6DB"/>
<path d="M236 509.5C236 510.328 235.328 511 234.5 511C233.672 511 233 510.328 233 509.5C233 508.672 233.672 508 234.5 508C235.328 508 236 508.672 236 509.5Z" fill="#D2D6DB"/>
<path d="M245 509.5C245 510.328 244.328 511 243.5 511C242.672 511 242 510.328 242 509.5C242 508.672 242.672 508 243.5 508C244.328 508 245 508.672 245 509.5Z" fill="#D2D6DB"/>
<path d="M56 518.5C56 519.328 55.3284 520 54.5 520C53.6716 520 53 519.328 53 518.5C53 517.672 53.6716 517 54.5 517C55.3284 517 56 517.672 56 518.5Z" fill="#D2D6DB"/>
<path d="M65 518.5C65 519.328 64.3284 520 63.5 520C62.6716 520 62 519.328 62 518.5C62 517.672 62.6716 517 63.5 517C64.3284 517 65 517.672 65 518.5Z" fill="#D2D6DB"/>
<path d="M74 518.5C74 519.328 73.3284 520 72.5 520C71.6716 520 71 519.328 71 518.5C71 517.672 71.6716 517 72.5 517C73.3284 517 74 517.672 74 518.5Z" fill="#D2D6DB"/>
<path d="M83 518.5C83 519.328 82.3284 520 81.5 520C80.6716 520 80 519.328 80 518.5C80 517.672 80.6716 517 81.5 517C82.3284 517 83 517.672 83 518.5Z" fill="#D2D6DB"/>
<path d="M92 518.5C92 519.328 91.3284 520 90.5 520C89.6716 520 89 519.328 89 518.5C89 517.672 89.6716 517 90.5 517C91.3284 517 92 517.672 92 518.5Z" fill="#D2D6DB"/>
<path d="M101 518.5C101 519.328 100.328 520 99.5 520C98.6716 520 98 519.328 98 518.5C98 517.672 98.6716 517 99.5 517C100.328 517 101 517.672 101 518.5Z" fill="#D2D6DB"/>
<path d="M110 518.5C110 519.328 109.328 520 108.5 520C107.672 520 107 519.328 107 518.5C107 517.672 107.672 517 108.5 517C109.328 517 110 517.672 110 518.5Z" fill="#D2D6DB"/>
<path d="M119 518.5C119 519.328 118.328 520 117.5 520C116.672 520 116 519.328 116 518.5C116 517.672 116.672 517 117.5 517C118.328 517 119 517.672 119 518.5Z" fill="#D2D6DB"/>
<path d="M128 518.5C128 519.328 127.328 520 126.5 520C125.672 520 125 519.328 125 518.5C125 517.672 125.672 517 126.5 517C127.328 517 128 517.672 128 518.5Z" fill="#D2D6DB"/>
<path d="M137 518.5C137 519.328 136.328 520 135.5 520C134.672 520 134 519.328 134 518.5C134 517.672 134.672 517 135.5 517C136.328 517 137 517.672 137 518.5Z" fill="#D2D6DB"/>
<path d="M146 518.5C146 519.328 145.328 520 144.5 520C143.672 520 143 519.328 143 518.5C143 517.672 143.672 517 144.5 517C145.328 517 146 517.672 146 518.5Z" fill="#D2D6DB"/>
<path d="M155 518.5C155 519.328 154.328 520 153.5 520C152.672 520 152 519.328 152 518.5C152 517.672 152.672 517 153.5 517C154.328 517 155 517.672 155 518.5Z" fill="#D2D6DB"/>
<path d="M164 518.5C164 519.328 163.328 520 162.5 520C161.672 520 161 519.328 161 518.5C161 517.672 161.672 517 162.5 517C163.328 517 164 517.672 164 518.5Z" fill="#D2D6DB"/>
<path d="M173 518.5C173 519.328 172.328 520 171.5 520C170.672 520 170 519.328 170 518.5C170 517.672 170.672 517 171.5 517C172.328 517 173 517.672 173 518.5Z" fill="#D2D6DB"/>
<path d="M182 518.5C182 519.328 181.328 520 180.5 520C179.672 520 179 519.328 179 518.5C179 517.672 179.672 517 180.5 517C181.328 517 182 517.672 182 518.5Z" fill="#D2D6DB"/>
<path d="M191 518.5C191 519.328 190.328 520 189.5 520C188.672 520 188 519.328 188 518.5C188 517.672 188.672 517 189.5 517C190.328 517 191 517.672 191 518.5Z" fill="#D2D6DB"/>
<path d="M200 518.5C200 519.328 199.328 520 198.5 520C197.672 520 197 519.328 197 518.5C197 517.672 197.672 517 198.5 517C199.328 517 200 517.672 200 518.5Z" fill="#D2D6DB"/>
<path d="M209 518.5C209 519.328 208.328 520 207.5 520C206.672 520 206 519.328 206 518.5C206 517.672 206.672 517 207.5 517C208.328 517 209 517.672 209 518.5Z" fill="#D2D6DB"/>
<path d="M218 518.5C218 519.328 217.328 520 216.5 520C215.672 520 215 519.328 215 518.5C215 517.672 215.672 517 216.5 517C217.328 517 218 517.672 218 518.5Z" fill="#D2D6DB"/>
<path d="M227 518.5C227 519.328 226.328 520 225.5 520C224.672 520 224 519.328 224 518.5C224 517.672 224.672 517 225.5 517C226.328 517 227 517.672 227 518.5Z" fill="#D2D6DB"/>
<path d="M236 518.5C236 519.328 235.328 520 234.5 520C233.672 520 233 519.328 233 518.5C233 517.672 233.672 517 234.5 517C235.328 517 236 517.672 236 518.5Z" fill="#D2D6DB"/>
<path d="M245 518.5C245 519.328 244.328 520 243.5 520C242.672 520 242 519.328 242 518.5C242 517.672 242.672 517 243.5 517C244.328 517 245 517.672 245 518.5Z" fill="#D2D6DB"/>
<path d="M56 527.5C56 528.328 55.3284 529 54.5 529C53.6716 529 53 528.328 53 527.5C53 526.672 53.6716 526 54.5 526C55.3284 526 56 526.672 56 527.5Z" fill="#D2D6DB"/>
<path d="M65 527.5C65 528.328 64.3284 529 63.5 529C62.6716 529 62 528.328 62 527.5C62 526.672 62.6716 526 63.5 526C64.3284 526 65 526.672 65 527.5Z" fill="#D2D6DB"/>
<path d="M74 527.5C74 528.328 73.3284 529 72.5 529C71.6716 529 71 528.328 71 527.5C71 526.672 71.6716 526 72.5 526C73.3284 526 74 526.672 74 527.5Z" fill="#D2D6DB"/>
<path d="M83 527.5C83 528.328 82.3284 529 81.5 529C80.6716 529 80 528.328 80 527.5C80 526.672 80.6716 526 81.5 526C82.3284 526 83 526.672 83 527.5Z" fill="#D2D6DB"/>
<path d="M92 527.5C92 528.328 91.3284 529 90.5 529C89.6716 529 89 528.328 89 527.5C89 526.672 89.6716 526 90.5 526C91.3284 526 92 526.672 92 527.5Z" fill="#D2D6DB"/>
<path d="M101 527.5C101 528.328 100.328 529 99.5 529C98.6716 529 98 528.328 98 527.5C98 526.672 98.6716 526 99.5 526C100.328 526 101 526.672 101 527.5Z" fill="#D2D6DB"/>
<path d="M110 527.5C110 528.328 109.328 529 108.5 529C107.672 529 107 528.328 107 527.5C107 526.672 107.672 526 108.5 526C109.328 526 110 526.672 110 527.5Z" fill="#D2D6DB"/>
<path d="M119 527.5C119 528.328 118.328 529 117.5 529C116.672 529 116 528.328 116 527.5C116 526.672 116.672 526 117.5 526C118.328 526 119 526.672 119 527.5Z" fill="#D2D6DB"/>
<path d="M128 527.5C128 528.328 127.328 529 126.5 529C125.672 529 125 528.328 125 527.5C125 526.672 125.672 526 126.5 526C127.328 526 128 526.672 128 527.5Z" fill="#D2D6DB"/>
<path d="M137 527.5C137 528.328 136.328 529 135.5 529C134.672 529 134 528.328 134 527.5C134 526.672 134.672 526 135.5 526C136.328 526 137 526.672 137 527.5Z" fill="#D2D6DB"/>
<path d="M146 527.5C146 528.328 145.328 529 144.5 529C143.672 529 143 528.328 143 527.5C143 526.672 143.672 526 144.5 526C145.328 526 146 526.672 146 527.5Z" fill="#D2D6DB"/>
<path d="M155 527.5C155 528.328 154.328 529 153.5 529C152.672 529 152 528.328 152 527.5C152 526.672 152.672 526 153.5 526C154.328 526 155 526.672 155 527.5Z" fill="#D2D6DB"/>
<path d="M164 527.5C164 528.328 163.328 529 162.5 529C161.672 529 161 528.328 161 527.5C161 526.672 161.672 526 162.5 526C163.328 526 164 526.672 164 527.5Z" fill="#D2D6DB"/>
<path d="M173 527.5C173 528.328 172.328 529 171.5 529C170.672 529 170 528.328 170 527.5C170 526.672 170.672 526 171.5 526C172.328 526 173 526.672 173 527.5Z" fill="#D2D6DB"/>
<path d="M182 527.5C182 528.328 181.328 529 180.5 529C179.672 529 179 528.328 179 527.5C179 526.672 179.672 526 180.5 526C181.328 526 182 526.672 182 527.5Z" fill="#D2D6DB"/>
<path d="M191 527.5C191 528.328 190.328 529 189.5 529C188.672 529 188 528.328 188 527.5C188 526.672 188.672 526 189.5 526C190.328 526 191 526.672 191 527.5Z" fill="#D2D6DB"/>
<path d="M200 527.5C200 528.328 199.328 529 198.5 529C197.672 529 197 528.328 197 527.5C197 526.672 197.672 526 198.5 526C199.328 526 200 526.672 200 527.5Z" fill="#D2D6DB"/>
<path d="M209 527.5C209 528.328 208.328 529 207.5 529C206.672 529 206 528.328 206 527.5C206 526.672 206.672 526 207.5 526C208.328 526 209 526.672 209 527.5Z" fill="#D2D6DB"/>
<path d="M218 527.5C218 528.328 217.328 529 216.5 529C215.672 529 215 528.328 215 527.5C215 526.672 215.672 526 216.5 526C217.328 526 218 526.672 218 527.5Z" fill="#D2D6DB"/>
<path d="M227 527.5C227 528.328 226.328 529 225.5 529C224.672 529 224 528.328 224 527.5C224 526.672 224.672 526 225.5 526C226.328 526 227 526.672 227 527.5Z" fill="#D2D6DB"/>
<path d="M236 527.5C236 528.328 235.328 529 234.5 529C233.672 529 233 528.328 233 527.5C233 526.672 233.672 526 234.5 526C235.328 526 236 526.672 236 527.5Z" fill="#D2D6DB"/>
<path d="M245 527.5C245 528.328 244.328 529 243.5 529C242.672 529 242 528.328 242 527.5C242 526.672 242.672 526 243.5 526C244.328 526 245 526.672 245 527.5Z" fill="#D2D6DB"/>
<path d="M56 536.5C56 537.328 55.3284 538 54.5 538C53.6716 538 53 537.328 53 536.5C53 535.672 53.6716 535 54.5 535C55.3284 535 56 535.672 56 536.5Z" fill="#D2D6DB"/>
<path d="M65 536.5C65 537.328 64.3284 538 63.5 538C62.6716 538 62 537.328 62 536.5C62 535.672 62.6716 535 63.5 535C64.3284 535 65 535.672 65 536.5Z" fill="#D2D6DB"/>
<path d="M74 536.5C74 537.328 73.3284 538 72.5 538C71.6716 538 71 537.328 71 536.5C71 535.672 71.6716 535 72.5 535C73.3284 535 74 535.672 74 536.5Z" fill="#D2D6DB"/>
<path d="M83 536.5C83 537.328 82.3284 538 81.5 538C80.6716 538 80 537.328 80 536.5C80 535.672 80.6716 535 81.5 535C82.3284 535 83 535.672 83 536.5Z" fill="#D2D6DB"/>
<path d="M92 536.5C92 537.328 91.3284 538 90.5 538C89.6716 538 89 537.328 89 536.5C89 535.672 89.6716 535 90.5 535C91.3284 535 92 535.672 92 536.5Z" fill="#D2D6DB"/>
<path d="M101 536.5C101 537.328 100.328 538 99.5 538C98.6716 538 98 537.328 98 536.5C98 535.672 98.6716 535 99.5 535C100.328 535 101 535.672 101 536.5Z" fill="#D2D6DB"/>
<path d="M110 536.5C110 537.328 109.328 538 108.5 538C107.672 538 107 537.328 107 536.5C107 535.672 107.672 535 108.5 535C109.328 535 110 535.672 110 536.5Z" fill="#D2D6DB"/>
<path d="M119 536.5C119 537.328 118.328 538 117.5 538C116.672 538 116 537.328 116 536.5C116 535.672 116.672 535 117.5 535C118.328 535 119 535.672 119 536.5Z" fill="#D2D6DB"/>
<path d="M128 536.5C128 537.328 127.328 538 126.5 538C125.672 538 125 537.328 125 536.5C125 535.672 125.672 535 126.5 535C127.328 535 128 535.672 128 536.5Z" fill="#D2D6DB"/>
<path d="M137 536.5C137 537.328 136.328 538 135.5 538C134.672 538 134 537.328 134 536.5C134 535.672 134.672 535 135.5 535C136.328 535 137 535.672 137 536.5Z" fill="#D2D6DB"/>
<path d="M146 536.5C146 537.328 145.328 538 144.5 538C143.672 538 143 537.328 143 536.5C143 535.672 143.672 535 144.5 535C145.328 535 146 535.672 146 536.5Z" fill="#D2D6DB"/>
<path d="M155 536.5C155 537.328 154.328 538 153.5 538C152.672 538 152 537.328 152 536.5C152 535.672 152.672 535 153.5 535C154.328 535 155 535.672 155 536.5Z" fill="#D2D6DB"/>
<path d="M164 536.5C164 537.328 163.328 538 162.5 538C161.672 538 161 537.328 161 536.5C161 535.672 161.672 535 162.5 535C163.328 535 164 535.672 164 536.5Z" fill="#D2D6DB"/>
<path d="M173 536.5C173 537.328 172.328 538 171.5 538C170.672 538 170 537.328 170 536.5C170 535.672 170.672 535 171.5 535C172.328 535 173 535.672 173 536.5Z" fill="#D2D6DB"/>
<path d="M182 536.5C182 537.328 181.328 538 180.5 538C179.672 538 179 537.328 179 536.5C179 535.672 179.672 535 180.5 535C181.328 535 182 535.672 182 536.5Z" fill="#D2D6DB"/>
<path d="M191 536.5C191 537.328 190.328 538 189.5 538C188.672 538 188 537.328 188 536.5C188 535.672 188.672 535 189.5 535C190.328 535 191 535.672 191 536.5Z" fill="#D2D6DB"/>
<path d="M200 536.5C200 537.328 199.328 538 198.5 538C197.672 538 197 537.328 197 536.5C197 535.672 197.672 535 198.5 535C199.328 535 200 535.672 200 536.5Z" fill="#D2D6DB"/>
<path d="M209 536.5C209 537.328 208.328 538 207.5 538C206.672 538 206 537.328 206 536.5C206 535.672 206.672 535 207.5 535C208.328 535 209 535.672 209 536.5Z" fill="#D2D6DB"/>
<path d="M218 536.5C218 537.328 217.328 538 216.5 538C215.672 538 215 537.328 215 536.5C215 535.672 215.672 535 216.5 535C217.328 535 218 535.672 218 536.5Z" fill="#D2D6DB"/>
<path d="M227 536.5C227 537.328 226.328 538 225.5 538C224.672 538 224 537.328 224 536.5C224 535.672 224.672 535 225.5 535C226.328 535 227 535.672 227 536.5Z" fill="#D2D6DB"/>
<path d="M236 536.5C236 537.328 235.328 538 234.5 538C233.672 538 233 537.328 233 536.5C233 535.672 233.672 535 234.5 535C235.328 535 236 535.672 236 536.5Z" fill="#D2D6DB"/>
<path d="M245 536.5C245 537.328 244.328 538 243.5 538C242.672 538 242 537.328 242 536.5C242 535.672 242.672 535 243.5 535C244.328 535 245 535.672 245 536.5Z" fill="#D2D6DB"/>
<path d="M56 545.5C56 546.328 55.3284 547 54.5 547C53.6716 547 53 546.328 53 545.5C53 544.672 53.6716 544 54.5 544C55.3284 544 56 544.672 56 545.5Z" fill="#D2D6DB"/>
<path d="M65 545.5C65 546.328 64.3284 547 63.5 547C62.6716 547 62 546.328 62 545.5C62 544.672 62.6716 544 63.5 544C64.3284 544 65 544.672 65 545.5Z" fill="#D2D6DB"/>
<path d="M74 545.5C74 546.328 73.3284 547 72.5 547C71.6716 547 71 546.328 71 545.5C71 544.672 71.6716 544 72.5 544C73.3284 544 74 544.672 74 545.5Z" fill="#D2D6DB"/>
<path d="M83 545.5C83 546.328 82.3284 547 81.5 547C80.6716 547 80 546.328 80 545.5C80 544.672 80.6716 544 81.5 544C82.3284 544 83 544.672 83 545.5Z" fill="#D2D6DB"/>
<path d="M92 545.5C92 546.328 91.3284 547 90.5 547C89.6716 547 89 546.328 89 545.5C89 544.672 89.6716 544 90.5 544C91.3284 544 92 544.672 92 545.5Z" fill="#D2D6DB"/>
<path d="M101 545.5C101 546.328 100.328 547 99.5 547C98.6716 547 98 546.328 98 545.5C98 544.672 98.6716 544 99.5 544C100.328 544 101 544.672 101 545.5Z" fill="#D2D6DB"/>
<path d="M110 545.5C110 546.328 109.328 547 108.5 547C107.672 547 107 546.328 107 545.5C107 544.672 107.672 544 108.5 544C109.328 544 110 544.672 110 545.5Z" fill="#D2D6DB"/>
<path d="M119 545.5C119 546.328 118.328 547 117.5 547C116.672 547 116 546.328 116 545.5C116 544.672 116.672 544 117.5 544C118.328 544 119 544.672 119 545.5Z" fill="#D2D6DB"/>
<path d="M128 545.5C128 546.328 127.328 547 126.5 547C125.672 547 125 546.328 125 545.5C125 544.672 125.672 544 126.5 544C127.328 544 128 544.672 128 545.5Z" fill="#D2D6DB"/>
<path d="M137 545.5C137 546.328 136.328 547 135.5 547C134.672 547 134 546.328 134 545.5C134 544.672 134.672 544 135.5 544C136.328 544 137 544.672 137 545.5Z" fill="#D2D6DB"/>
<path d="M146 545.5C146 546.328 145.328 547 144.5 547C143.672 547 143 546.328 143 545.5C143 544.672 143.672 544 144.5 544C145.328 544 146 544.672 146 545.5Z" fill="#D2D6DB"/>
<path d="M155 545.5C155 546.328 154.328 547 153.5 547C152.672 547 152 546.328 152 545.5C152 544.672 152.672 544 153.5 544C154.328 544 155 544.672 155 545.5Z" fill="#D2D6DB"/>
<path d="M164 545.5C164 546.328 163.328 547 162.5 547C161.672 547 161 546.328 161 545.5C161 544.672 161.672 544 162.5 544C163.328 544 164 544.672 164 545.5Z" fill="#D2D6DB"/>
<path d="M173 545.5C173 546.328 172.328 547 171.5 547C170.672 547 170 546.328 170 545.5C170 544.672 170.672 544 171.5 544C172.328 544 173 544.672 173 545.5Z" fill="#D2D6DB"/>
<path d="M182 545.5C182 546.328 181.328 547 180.5 547C179.672 547 179 546.328 179 545.5C179 544.672 179.672 544 180.5 544C181.328 544 182 544.672 182 545.5Z" fill="#D2D6DB"/>
<path d="M191 545.5C191 546.328 190.328 547 189.5 547C188.672 547 188 546.328 188 545.5C188 544.672 188.672 544 189.5 544C190.328 544 191 544.672 191 545.5Z" fill="#D2D6DB"/>
<path d="M200 545.5C200 546.328 199.328 547 198.5 547C197.672 547 197 546.328 197 545.5C197 544.672 197.672 544 198.5 544C199.328 544 200 544.672 200 545.5Z" fill="#D2D6DB"/>
<path d="M209 545.5C209 546.328 208.328 547 207.5 547C206.672 547 206 546.328 206 545.5C206 544.672 206.672 544 207.5 544C208.328 544 209 544.672 209 545.5Z" fill="#D2D6DB"/>
<path d="M218 545.5C218 546.328 217.328 547 216.5 547C215.672 547 215 546.328 215 545.5C215 544.672 215.672 544 216.5 544C217.328 544 218 544.672 218 545.5Z" fill="#D2D6DB"/>
<path d="M227 545.5C227 546.328 226.328 547 225.5 547C224.672 547 224 546.328 224 545.5C224 544.672 224.672 544 225.5 544C226.328 544 227 544.672 227 545.5Z" fill="#D2D6DB"/>
<path d="M236 545.5C236 546.328 235.328 547 234.5 547C233.672 547 233 546.328 233 545.5C233 544.672 233.672 544 234.5 544C235.328 544 236 544.672 236 545.5Z" fill="#D2D6DB"/>
<path d="M245 545.5C245 546.328 244.328 547 243.5 547C242.672 547 242 546.328 242 545.5C242 544.672 242.672 544 243.5 544C244.328 544 245 544.672 245 545.5Z" fill="#D2D6DB"/>
<path d="M56 554.5C56 555.328 55.3284 556 54.5 556C53.6716 556 53 555.328 53 554.5C53 553.672 53.6716 553 54.5 553C55.3284 553 56 553.672 56 554.5Z" fill="#D2D6DB"/>
<path d="M65 554.5C65 555.328 64.3284 556 63.5 556C62.6716 556 62 555.328 62 554.5C62 553.672 62.6716 553 63.5 553C64.3284 553 65 553.672 65 554.5Z" fill="#D2D6DB"/>
<path d="M74 554.5C74 555.328 73.3284 556 72.5 556C71.6716 556 71 555.328 71 554.5C71 553.672 71.6716 553 72.5 553C73.3284 553 74 553.672 74 554.5Z" fill="#D2D6DB"/>
<path d="M83 554.5C83 555.328 82.3284 556 81.5 556C80.6716 556 80 555.328 80 554.5C80 553.672 80.6716 553 81.5 553C82.3284 553 83 553.672 83 554.5Z" fill="#D2D6DB"/>
<path d="M92 554.5C92 555.328 91.3284 556 90.5 556C89.6716 556 89 555.328 89 554.5C89 553.672 89.6716 553 90.5 553C91.3284 553 92 553.672 92 554.5Z" fill="#D2D6DB"/>
<path d="M101 554.5C101 555.328 100.328 556 99.5 556C98.6716 556 98 555.328 98 554.5C98 553.672 98.6716 553 99.5 553C100.328 553 101 553.672 101 554.5Z" fill="#D2D6DB"/>
<path d="M110 554.5C110 555.328 109.328 556 108.5 556C107.672 556 107 555.328 107 554.5C107 553.672 107.672 553 108.5 553C109.328 553 110 553.672 110 554.5Z" fill="#D2D6DB"/>
<path d="M119 554.5C119 555.328 118.328 556 117.5 556C116.672 556 116 555.328 116 554.5C116 553.672 116.672 553 117.5 553C118.328 553 119 553.672 119 554.5Z" fill="#D2D6DB"/>
<path d="M128 554.5C128 555.328 127.328 556 126.5 556C125.672 556 125 555.328 125 554.5C125 553.672 125.672 553 126.5 553C127.328 553 128 553.672 128 554.5Z" fill="#D2D6DB"/>
<path d="M137 554.5C137 555.328 136.328 556 135.5 556C134.672 556 134 555.328 134 554.5C134 553.672 134.672 553 135.5 553C136.328 553 137 553.672 137 554.5Z" fill="#D2D6DB"/>
<path d="M146 554.5C146 555.328 145.328 556 144.5 556C143.672 556 143 555.328 143 554.5C143 553.672 143.672 553 144.5 553C145.328 553 146 553.672 146 554.5Z" fill="#D2D6DB"/>
<path d="M155 554.5C155 555.328 154.328 556 153.5 556C152.672 556 152 555.328 152 554.5C152 553.672 152.672 553 153.5 553C154.328 553 155 553.672 155 554.5Z" fill="#D2D6DB"/>
<path d="M164 554.5C164 555.328 163.328 556 162.5 556C161.672 556 161 555.328 161 554.5C161 553.672 161.672 553 162.5 553C163.328 553 164 553.672 164 554.5Z" fill="#D2D6DB"/>
<path d="M173 554.5C173 555.328 172.328 556 171.5 556C170.672 556 170 555.328 170 554.5C170 553.672 170.672 553 171.5 553C172.328 553 173 553.672 173 554.5Z" fill="#D2D6DB"/>
<path d="M182 554.5C182 555.328 181.328 556 180.5 556C179.672 556 179 555.328 179 554.5C179 553.672 179.672 553 180.5 553C181.328 553 182 553.672 182 554.5Z" fill="#D2D6DB"/>
<path d="M191 554.5C191 555.328 190.328 556 189.5 556C188.672 556 188 555.328 188 554.5C188 553.672 188.672 553 189.5 553C190.328 553 191 553.672 191 554.5Z" fill="#D2D6DB"/>
<path d="M200 554.5C200 555.328 199.328 556 198.5 556C197.672 556 197 555.328 197 554.5C197 553.672 197.672 553 198.5 553C199.328 553 200 553.672 200 554.5Z" fill="#D2D6DB"/>
<path d="M209 554.5C209 555.328 208.328 556 207.5 556C206.672 556 206 555.328 206 554.5C206 553.672 206.672 553 207.5 553C208.328 553 209 553.672 209 554.5Z" fill="#D2D6DB"/>
<path d="M218 554.5C218 555.328 217.328 556 216.5 556C215.672 556 215 555.328 215 554.5C215 553.672 215.672 553 216.5 553C217.328 553 218 553.672 218 554.5Z" fill="#D2D6DB"/>
<path d="M227 554.5C227 555.328 226.328 556 225.5 556C224.672 556 224 555.328 224 554.5C224 553.672 224.672 553 225.5 553C226.328 553 227 553.672 227 554.5Z" fill="#D2D6DB"/>
<path d="M236 554.5C236 555.328 235.328 556 234.5 556C233.672 556 233 555.328 233 554.5C233 553.672 233.672 553 234.5 553C235.328 553 236 553.672 236 554.5Z" fill="#D2D6DB"/>
<path d="M245 554.5C245 555.328 244.328 556 243.5 556C242.672 556 242 555.328 242 554.5C242 553.672 242.672 553 243.5 553C244.328 553 245 553.672 245 554.5Z" fill="#D2D6DB"/>
<path d="M56 563.5C56 564.328 55.3284 565 54.5 565C53.6716 565 53 564.328 53 563.5C53 562.672 53.6716 562 54.5 562C55.3284 562 56 562.672 56 563.5Z" fill="#D2D6DB"/>
<path d="M65 563.5C65 564.328 64.3284 565 63.5 565C62.6716 565 62 564.328 62 563.5C62 562.672 62.6716 562 63.5 562C64.3284 562 65 562.672 65 563.5Z" fill="#D2D6DB"/>
<path d="M74 563.5C74 564.328 73.3284 565 72.5 565C71.6716 565 71 564.328 71 563.5C71 562.672 71.6716 562 72.5 562C73.3284 562 74 562.672 74 563.5Z" fill="#D2D6DB"/>
<path d="M83 563.5C83 564.328 82.3284 565 81.5 565C80.6716 565 80 564.328 80 563.5C80 562.672 80.6716 562 81.5 562C82.3284 562 83 562.672 83 563.5Z" fill="#D2D6DB"/>
<path d="M92 563.5C92 564.328 91.3284 565 90.5 565C89.6716 565 89 564.328 89 563.5C89 562.672 89.6716 562 90.5 562C91.3284 562 92 562.672 92 563.5Z" fill="#D2D6DB"/>
<path d="M101 563.5C101 564.328 100.328 565 99.5 565C98.6716 565 98 564.328 98 563.5C98 562.672 98.6716 562 99.5 562C100.328 562 101 562.672 101 563.5Z" fill="#D2D6DB"/>
<path d="M110 563.5C110 564.328 109.328 565 108.5 565C107.672 565 107 564.328 107 563.5C107 562.672 107.672 562 108.5 562C109.328 562 110 562.672 110 563.5Z" fill="#D2D6DB"/>
<path d="M119 563.5C119 564.328 118.328 565 117.5 565C116.672 565 116 564.328 116 563.5C116 562.672 116.672 562 117.5 562C118.328 562 119 562.672 119 563.5Z" fill="#D2D6DB"/>
<path d="M128 563.5C128 564.328 127.328 565 126.5 565C125.672 565 125 564.328 125 563.5C125 562.672 125.672 562 126.5 562C127.328 562 128 562.672 128 563.5Z" fill="#D2D6DB"/>
<path d="M137 563.5C137 564.328 136.328 565 135.5 565C134.672 565 134 564.328 134 563.5C134 562.672 134.672 562 135.5 562C136.328 562 137 562.672 137 563.5Z" fill="#D2D6DB"/>
<path d="M146 563.5C146 564.328 145.328 565 144.5 565C143.672 565 143 564.328 143 563.5C143 562.672 143.672 562 144.5 562C145.328 562 146 562.672 146 563.5Z" fill="#D2D6DB"/>
<path d="M155 563.5C155 564.328 154.328 565 153.5 565C152.672 565 152 564.328 152 563.5C152 562.672 152.672 562 153.5 562C154.328 562 155 562.672 155 563.5Z" fill="#D2D6DB"/>
<path d="M164 563.5C164 564.328 163.328 565 162.5 565C161.672 565 161 564.328 161 563.5C161 562.672 161.672 562 162.5 562C163.328 562 164 562.672 164 563.5Z" fill="#D2D6DB"/>
<path d="M173 563.5C173 564.328 172.328 565 171.5 565C170.672 565 170 564.328 170 563.5C170 562.672 170.672 562 171.5 562C172.328 562 173 562.672 173 563.5Z" fill="#D2D6DB"/>
<path d="M182 563.5C182 564.328 181.328 565 180.5 565C179.672 565 179 564.328 179 563.5C179 562.672 179.672 562 180.5 562C181.328 562 182 562.672 182 563.5Z" fill="#D2D6DB"/>
<path d="M191 563.5C191 564.328 190.328 565 189.5 565C188.672 565 188 564.328 188 563.5C188 562.672 188.672 562 189.5 562C190.328 562 191 562.672 191 563.5Z" fill="#D2D6DB"/>
<path d="M200 563.5C200 564.328 199.328 565 198.5 565C197.672 565 197 564.328 197 563.5C197 562.672 197.672 562 198.5 562C199.328 562 200 562.672 200 563.5Z" fill="#D2D6DB"/>
<path d="M209 563.5C209 564.328 208.328 565 207.5 565C206.672 565 206 564.328 206 563.5C206 562.672 206.672 562 207.5 562C208.328 562 209 562.672 209 563.5Z" fill="#D2D6DB"/>
<path d="M218 563.5C218 564.328 217.328 565 216.5 565C215.672 565 215 564.328 215 563.5C215 562.672 215.672 562 216.5 562C217.328 562 218 562.672 218 563.5Z" fill="#D2D6DB"/>
<path d="M227 563.5C227 564.328 226.328 565 225.5 565C224.672 565 224 564.328 224 563.5C224 562.672 224.672 562 225.5 562C226.328 562 227 562.672 227 563.5Z" fill="#D2D6DB"/>
<path d="M236 563.5C236 564.328 235.328 565 234.5 565C233.672 565 233 564.328 233 563.5C233 562.672 233.672 562 234.5 562C235.328 562 236 562.672 236 563.5Z" fill="#D2D6DB"/>
<path d="M245 563.5C245 564.328 244.328 565 243.5 565C242.672 565 242 564.328 242 563.5C242 562.672 242.672 562 243.5 562C244.328 562 245 562.672 245 563.5Z" fill="#D2D6DB"/>
<path d="M56 572.5C56 573.328 55.3284 574 54.5 574C53.6716 574 53 573.328 53 572.5C53 571.672 53.6716 571 54.5 571C55.3284 571 56 571.672 56 572.5Z" fill="#D2D6DB"/>
<path d="M65 572.5C65 573.328 64.3284 574 63.5 574C62.6716 574 62 573.328 62 572.5C62 571.672 62.6716 571 63.5 571C64.3284 571 65 571.672 65 572.5Z" fill="#D2D6DB"/>
<path d="M74 572.5C74 573.328 73.3284 574 72.5 574C71.6716 574 71 573.328 71 572.5C71 571.672 71.6716 571 72.5 571C73.3284 571 74 571.672 74 572.5Z" fill="#D2D6DB"/>
<path d="M83 572.5C83 573.328 82.3284 574 81.5 574C80.6716 574 80 573.328 80 572.5C80 571.672 80.6716 571 81.5 571C82.3284 571 83 571.672 83 572.5Z" fill="#D2D6DB"/>
<path d="M92 572.5C92 573.328 91.3284 574 90.5 574C89.6716 574 89 573.328 89 572.5C89 571.672 89.6716 571 90.5 571C91.3284 571 92 571.672 92 572.5Z" fill="#D2D6DB"/>
<path d="M101 572.5C101 573.328 100.328 574 99.5 574C98.6716 574 98 573.328 98 572.5C98 571.672 98.6716 571 99.5 571C100.328 571 101 571.672 101 572.5Z" fill="#D2D6DB"/>
<path d="M110 572.5C110 573.328 109.328 574 108.5 574C107.672 574 107 573.328 107 572.5C107 571.672 107.672 571 108.5 571C109.328 571 110 571.672 110 572.5Z" fill="#D2D6DB"/>
<path d="M119 572.5C119 573.328 118.328 574 117.5 574C116.672 574 116 573.328 116 572.5C116 571.672 116.672 571 117.5 571C118.328 571 119 571.672 119 572.5Z" fill="#D2D6DB"/>
<path d="M128 572.5C128 573.328 127.328 574 126.5 574C125.672 574 125 573.328 125 572.5C125 571.672 125.672 571 126.5 571C127.328 571 128 571.672 128 572.5Z" fill="#D2D6DB"/>
<path d="M137 572.5C137 573.328 136.328 574 135.5 574C134.672 574 134 573.328 134 572.5C134 571.672 134.672 571 135.5 571C136.328 571 137 571.672 137 572.5Z" fill="#D2D6DB"/>
<path d="M146 572.5C146 573.328 145.328 574 144.5 574C143.672 574 143 573.328 143 572.5C143 571.672 143.672 571 144.5 571C145.328 571 146 571.672 146 572.5Z" fill="#D2D6DB"/>
<path d="M155 572.5C155 573.328 154.328 574 153.5 574C152.672 574 152 573.328 152 572.5C152 571.672 152.672 571 153.5 571C154.328 571 155 571.672 155 572.5Z" fill="#D2D6DB"/>
<path d="M164 572.5C164 573.328 163.328 574 162.5 574C161.672 574 161 573.328 161 572.5C161 571.672 161.672 571 162.5 571C163.328 571 164 571.672 164 572.5Z" fill="#D2D6DB"/>
<path d="M173 572.5C173 573.328 172.328 574 171.5 574C170.672 574 170 573.328 170 572.5C170 571.672 170.672 571 171.5 571C172.328 571 173 571.672 173 572.5Z" fill="#D2D6DB"/>
<path d="M182 572.5C182 573.328 181.328 574 180.5 574C179.672 574 179 573.328 179 572.5C179 571.672 179.672 571 180.5 571C181.328 571 182 571.672 182 572.5Z" fill="#D2D6DB"/>
<path d="M191 572.5C191 573.328 190.328 574 189.5 574C188.672 574 188 573.328 188 572.5C188 571.672 188.672 571 189.5 571C190.328 571 191 571.672 191 572.5Z" fill="#D2D6DB"/>
<path d="M200 572.5C200 573.328 199.328 574 198.5 574C197.672 574 197 573.328 197 572.5C197 571.672 197.672 571 198.5 571C199.328 571 200 571.672 200 572.5Z" fill="#D2D6DB"/>
<path d="M209 572.5C209 573.328 208.328 574 207.5 574C206.672 574 206 573.328 206 572.5C206 571.672 206.672 571 207.5 571C208.328 571 209 571.672 209 572.5Z" fill="#D2D6DB"/>
<path d="M218 572.5C218 573.328 217.328 574 216.5 574C215.672 574 215 573.328 215 572.5C215 571.672 215.672 571 216.5 571C217.328 571 218 571.672 218 572.5Z" fill="#D2D6DB"/>
<path d="M227 572.5C227 573.328 226.328 574 225.5 574C224.672 574 224 573.328 224 572.5C224 571.672 224.672 571 225.5 571C226.328 571 227 571.672 227 572.5Z" fill="#D2D6DB"/>
<path d="M236 572.5C236 573.328 235.328 574 234.5 574C233.672 574 233 573.328 233 572.5C233 571.672 233.672 571 234.5 571C235.328 571 236 571.672 236 572.5Z" fill="#D2D6DB"/>
<path d="M245 572.5C245 573.328 244.328 574 243.5 574C242.672 574 242 573.328 242 572.5C242 571.672 242.672 571 243.5 571C244.328 571 245 571.672 245 572.5Z" fill="#D2D6DB"/>
<path d="M56 581.5C56 582.328 55.3284 583 54.5 583C53.6716 583 53 582.328 53 581.5C53 580.672 53.6716 580 54.5 580C55.3284 580 56 580.672 56 581.5Z" fill="#D2D6DB"/>
<path d="M65 581.5C65 582.328 64.3284 583 63.5 583C62.6716 583 62 582.328 62 581.5C62 580.672 62.6716 580 63.5 580C64.3284 580 65 580.672 65 581.5Z" fill="#D2D6DB"/>
<path d="M74 581.5C74 582.328 73.3284 583 72.5 583C71.6716 583 71 582.328 71 581.5C71 580.672 71.6716 580 72.5 580C73.3284 580 74 580.672 74 581.5Z" fill="#D2D6DB"/>
<path d="M83 581.5C83 582.328 82.3284 583 81.5 583C80.6716 583 80 582.328 80 581.5C80 580.672 80.6716 580 81.5 580C82.3284 580 83 580.672 83 581.5Z" fill="#D2D6DB"/>
<path d="M92 581.5C92 582.328 91.3284 583 90.5 583C89.6716 583 89 582.328 89 581.5C89 580.672 89.6716 580 90.5 580C91.3284 580 92 580.672 92 581.5Z" fill="#D2D6DB"/>
<path d="M101 581.5C101 582.328 100.328 583 99.5 583C98.6716 583 98 582.328 98 581.5C98 580.672 98.6716 580 99.5 580C100.328 580 101 580.672 101 581.5Z" fill="#D2D6DB"/>
<path d="M110 581.5C110 582.328 109.328 583 108.5 583C107.672 583 107 582.328 107 581.5C107 580.672 107.672 580 108.5 580C109.328 580 110 580.672 110 581.5Z" fill="#D2D6DB"/>
<path d="M119 581.5C119 582.328 118.328 583 117.5 583C116.672 583 116 582.328 116 581.5C116 580.672 116.672 580 117.5 580C118.328 580 119 580.672 119 581.5Z" fill="#D2D6DB"/>
<path d="M128 581.5C128 582.328 127.328 583 126.5 583C125.672 583 125 582.328 125 581.5C125 580.672 125.672 580 126.5 580C127.328 580 128 580.672 128 581.5Z" fill="#D2D6DB"/>
<path d="M137 581.5C137 582.328 136.328 583 135.5 583C134.672 583 134 582.328 134 581.5C134 580.672 134.672 580 135.5 580C136.328 580 137 580.672 137 581.5Z" fill="#D2D6DB"/>
<path d="M146 581.5C146 582.328 145.328 583 144.5 583C143.672 583 143 582.328 143 581.5C143 580.672 143.672 580 144.5 580C145.328 580 146 580.672 146 581.5Z" fill="#D2D6DB"/>
<path d="M155 581.5C155 582.328 154.328 583 153.5 583C152.672 583 152 582.328 152 581.5C152 580.672 152.672 580 153.5 580C154.328 580 155 580.672 155 581.5Z" fill="#D2D6DB"/>
<path d="M164 581.5C164 582.328 163.328 583 162.5 583C161.672 583 161 582.328 161 581.5C161 580.672 161.672 580 162.5 580C163.328 580 164 580.672 164 581.5Z" fill="#D2D6DB"/>
<path d="M173 581.5C173 582.328 172.328 583 171.5 583C170.672 583 170 582.328 170 581.5C170 580.672 170.672 580 171.5 580C172.328 580 173 580.672 173 581.5Z" fill="#D2D6DB"/>
<path d="M182 581.5C182 582.328 181.328 583 180.5 583C179.672 583 179 582.328 179 581.5C179 580.672 179.672 580 180.5 580C181.328 580 182 580.672 182 581.5Z" fill="#D2D6DB"/>
<path d="M191 581.5C191 582.328 190.328 583 189.5 583C188.672 583 188 582.328 188 581.5C188 580.672 188.672 580 189.5 580C190.328 580 191 580.672 191 581.5Z" fill="#D2D6DB"/>
<path d="M200 581.5C200 582.328 199.328 583 198.5 583C197.672 583 197 582.328 197 581.5C197 580.672 197.672 580 198.5 580C199.328 580 200 580.672 200 581.5Z" fill="#D2D6DB"/>
<path d="M209 581.5C209 582.328 208.328 583 207.5 583C206.672 583 206 582.328 206 581.5C206 580.672 206.672 580 207.5 580C208.328 580 209 580.672 209 581.5Z" fill="#D2D6DB"/>
<path d="M218 581.5C218 582.328 217.328 583 216.5 583C215.672 583 215 582.328 215 581.5C215 580.672 215.672 580 216.5 580C217.328 580 218 580.672 218 581.5Z" fill="#D2D6DB"/>
<path d="M227 581.5C227 582.328 226.328 583 225.5 583C224.672 583 224 582.328 224 581.5C224 580.672 224.672 580 225.5 580C226.328 580 227 580.672 227 581.5Z" fill="#D2D6DB"/>
<path d="M236 581.5C236 582.328 235.328 583 234.5 583C233.672 583 233 582.328 233 581.5C233 580.672 233.672 580 234.5 580C235.328 580 236 580.672 236 581.5Z" fill="#D2D6DB"/>
<path d="M245 581.5C245 582.328 244.328 583 243.5 583C242.672 583 242 582.328 242 581.5C242 580.672 242.672 580 243.5 580C244.328 580 245 580.672 245 581.5Z" fill="#D2D6DB"/>
<path d="M56 590.5C56 591.328 55.3284 592 54.5 592C53.6716 592 53 591.328 53 590.5C53 589.672 53.6716 589 54.5 589C55.3284 589 56 589.672 56 590.5Z" fill="#D2D6DB"/>
<path d="M65 590.5C65 591.328 64.3284 592 63.5 592C62.6716 592 62 591.328 62 590.5C62 589.672 62.6716 589 63.5 589C64.3284 589 65 589.672 65 590.5Z" fill="#D2D6DB"/>
<path d="M74 590.5C74 591.328 73.3284 592 72.5 592C71.6716 592 71 591.328 71 590.5C71 589.672 71.6716 589 72.5 589C73.3284 589 74 589.672 74 590.5Z" fill="#D2D6DB"/>
<path d="M83 590.5C83 591.328 82.3284 592 81.5 592C80.6716 592 80 591.328 80 590.5C80 589.672 80.6716 589 81.5 589C82.3284 589 83 589.672 83 590.5Z" fill="#D2D6DB"/>
<path d="M92 590.5C92 591.328 91.3284 592 90.5 592C89.6716 592 89 591.328 89 590.5C89 589.672 89.6716 589 90.5 589C91.3284 589 92 589.672 92 590.5Z" fill="#D2D6DB"/>
<path d="M101 590.5C101 591.328 100.328 592 99.5 592C98.6716 592 98 591.328 98 590.5C98 589.672 98.6716 589 99.5 589C100.328 589 101 589.672 101 590.5Z" fill="#D2D6DB"/>
<path d="M110 590.5C110 591.328 109.328 592 108.5 592C107.672 592 107 591.328 107 590.5C107 589.672 107.672 589 108.5 589C109.328 589 110 589.672 110 590.5Z" fill="#D2D6DB"/>
<path d="M119 590.5C119 591.328 118.328 592 117.5 592C116.672 592 116 591.328 116 590.5C116 589.672 116.672 589 117.5 589C118.328 589 119 589.672 119 590.5Z" fill="#D2D6DB"/>
<path d="M128 590.5C128 591.328 127.328 592 126.5 592C125.672 592 125 591.328 125 590.5C125 589.672 125.672 589 126.5 589C127.328 589 128 589.672 128 590.5Z" fill="#D2D6DB"/>
<path d="M137 590.5C137 591.328 136.328 592 135.5 592C134.672 592 134 591.328 134 590.5C134 589.672 134.672 589 135.5 589C136.328 589 137 589.672 137 590.5Z" fill="#D2D6DB"/>
<path d="M146 590.5C146 591.328 145.328 592 144.5 592C143.672 592 143 591.328 143 590.5C143 589.672 143.672 589 144.5 589C145.328 589 146 589.672 146 590.5Z" fill="#D2D6DB"/>
<path d="M155 590.5C155 591.328 154.328 592 153.5 592C152.672 592 152 591.328 152 590.5C152 589.672 152.672 589 153.5 589C154.328 589 155 589.672 155 590.5Z" fill="#D2D6DB"/>
<path d="M164 590.5C164 591.328 163.328 592 162.5 592C161.672 592 161 591.328 161 590.5C161 589.672 161.672 589 162.5 589C163.328 589 164 589.672 164 590.5Z" fill="#D2D6DB"/>
<path d="M173 590.5C173 591.328 172.328 592 171.5 592C170.672 592 170 591.328 170 590.5C170 589.672 170.672 589 171.5 589C172.328 589 173 589.672 173 590.5Z" fill="#D2D6DB"/>
<path d="M182 590.5C182 591.328 181.328 592 180.5 592C179.672 592 179 591.328 179 590.5C179 589.672 179.672 589 180.5 589C181.328 589 182 589.672 182 590.5Z" fill="#D2D6DB"/>
<path d="M191 590.5C191 591.328 190.328 592 189.5 592C188.672 592 188 591.328 188 590.5C188 589.672 188.672 589 189.5 589C190.328 589 191 589.672 191 590.5Z" fill="#D2D6DB"/>
<path d="M200 590.5C200 591.328 199.328 592 198.5 592C197.672 592 197 591.328 197 590.5C197 589.672 197.672 589 198.5 589C199.328 589 200 589.672 200 590.5Z" fill="#D2D6DB"/>
<path d="M209 590.5C209 591.328 208.328 592 207.5 592C206.672 592 206 591.328 206 590.5C206 589.672 206.672 589 207.5 589C208.328 589 209 589.672 209 590.5Z" fill="#D2D6DB"/>
<path d="M218 590.5C218 591.328 217.328 592 216.5 592C215.672 592 215 591.328 215 590.5C215 589.672 215.672 589 216.5 589C217.328 589 218 589.672 218 590.5Z" fill="#D2D6DB"/>
<path d="M227 590.5C227 591.328 226.328 592 225.5 592C224.672 592 224 591.328 224 590.5C224 589.672 224.672 589 225.5 589C226.328 589 227 589.672 227 590.5Z" fill="#D2D6DB"/>
<path d="M236 590.5C236 591.328 235.328 592 234.5 592C233.672 592 233 591.328 233 590.5C233 589.672 233.672 589 234.5 589C235.328 589 236 589.672 236 590.5Z" fill="#D2D6DB"/>
<path d="M245 590.5C245 591.328 244.328 592 243.5 592C242.672 592 242 591.328 242 590.5C242 589.672 242.672 589 243.5 589C244.328 589 245 589.672 245 590.5Z" fill="#D2D6DB"/>
<path d="M56 599.5C56 600.328 55.3284 601 54.5 601C53.6716 601 53 600.328 53 599.5C53 598.672 53.6716 598 54.5 598C55.3284 598 56 598.672 56 599.5Z" fill="#D2D6DB"/>
<path d="M65 599.5C65 600.328 64.3284 601 63.5 601C62.6716 601 62 600.328 62 599.5C62 598.672 62.6716 598 63.5 598C64.3284 598 65 598.672 65 599.5Z" fill="#D2D6DB"/>
<path d="M74 599.5C74 600.328 73.3284 601 72.5 601C71.6716 601 71 600.328 71 599.5C71 598.672 71.6716 598 72.5 598C73.3284 598 74 598.672 74 599.5Z" fill="#D2D6DB"/>
<path d="M83 599.5C83 600.328 82.3284 601 81.5 601C80.6716 601 80 600.328 80 599.5C80 598.672 80.6716 598 81.5 598C82.3284 598 83 598.672 83 599.5Z" fill="#D2D6DB"/>
<path d="M92 599.5C92 600.328 91.3284 601 90.5 601C89.6716 601 89 600.328 89 599.5C89 598.672 89.6716 598 90.5 598C91.3284 598 92 598.672 92 599.5Z" fill="#D2D6DB"/>
<path d="M101 599.5C101 600.328 100.328 601 99.5 601C98.6716 601 98 600.328 98 599.5C98 598.672 98.6716 598 99.5 598C100.328 598 101 598.672 101 599.5Z" fill="#D2D6DB"/>
<path d="M110 599.5C110 600.328 109.328 601 108.5 601C107.672 601 107 600.328 107 599.5C107 598.672 107.672 598 108.5 598C109.328 598 110 598.672 110 599.5Z" fill="#D2D6DB"/>
<path d="M119 599.5C119 600.328 118.328 601 117.5 601C116.672 601 116 600.328 116 599.5C116 598.672 116.672 598 117.5 598C118.328 598 119 598.672 119 599.5Z" fill="#D2D6DB"/>
<path d="M128 599.5C128 600.328 127.328 601 126.5 601C125.672 601 125 600.328 125 599.5C125 598.672 125.672 598 126.5 598C127.328 598 128 598.672 128 599.5Z" fill="#D2D6DB"/>
<path d="M137 599.5C137 600.328 136.328 601 135.5 601C134.672 601 134 600.328 134 599.5C134 598.672 134.672 598 135.5 598C136.328 598 137 598.672 137 599.5Z" fill="#D2D6DB"/>
<path d="M146 599.5C146 600.328 145.328 601 144.5 601C143.672 601 143 600.328 143 599.5C143 598.672 143.672 598 144.5 598C145.328 598 146 598.672 146 599.5Z" fill="#D2D6DB"/>
<path d="M155 599.5C155 600.328 154.328 601 153.5 601C152.672 601 152 600.328 152 599.5C152 598.672 152.672 598 153.5 598C154.328 598 155 598.672 155 599.5Z" fill="#D2D6DB"/>
<path d="M164 599.5C164 600.328 163.328 601 162.5 601C161.672 601 161 600.328 161 599.5C161 598.672 161.672 598 162.5 598C163.328 598 164 598.672 164 599.5Z" fill="#D2D6DB"/>
<path d="M173 599.5C173 600.328 172.328 601 171.5 601C170.672 601 170 600.328 170 599.5C170 598.672 170.672 598 171.5 598C172.328 598 173 598.672 173 599.5Z" fill="#D2D6DB"/>
<path d="M182 599.5C182 600.328 181.328 601 180.5 601C179.672 601 179 600.328 179 599.5C179 598.672 179.672 598 180.5 598C181.328 598 182 598.672 182 599.5Z" fill="#D2D6DB"/>
<path d="M191 599.5C191 600.328 190.328 601 189.5 601C188.672 601 188 600.328 188 599.5C188 598.672 188.672 598 189.5 598C190.328 598 191 598.672 191 599.5Z" fill="#D2D6DB"/>
<path d="M200 599.5C200 600.328 199.328 601 198.5 601C197.672 601 197 600.328 197 599.5C197 598.672 197.672 598 198.5 598C199.328 598 200 598.672 200 599.5Z" fill="#D2D6DB"/>
<path d="M209 599.5C209 600.328 208.328 601 207.5 601C206.672 601 206 600.328 206 599.5C206 598.672 206.672 598 207.5 598C208.328 598 209 598.672 209 599.5Z" fill="#D2D6DB"/>
<path d="M218 599.5C218 600.328 217.328 601 216.5 601C215.672 601 215 600.328 215 599.5C215 598.672 215.672 598 216.5 598C217.328 598 218 598.672 218 599.5Z" fill="#D2D6DB"/>
<path d="M227 599.5C227 600.328 226.328 601 225.5 601C224.672 601 224 600.328 224 599.5C224 598.672 224.672 598 225.5 598C226.328 598 227 598.672 227 599.5Z" fill="#D2D6DB"/>
<path d="M236 599.5C236 600.328 235.328 601 234.5 601C233.672 601 233 600.328 233 599.5C233 598.672 233.672 598 234.5 598C235.328 598 236 598.672 236 599.5Z" fill="#D2D6DB"/>
<path d="M245 599.5C245 600.328 244.328 601 243.5 601C242.672 601 242 600.328 242 599.5C242 598.672 242.672 598 243.5 598C244.328 598 245 598.672 245 599.5Z" fill="#D2D6DB"/>
<path d="M56 608.5C56 609.328 55.3284 610 54.5 610C53.6716 610 53 609.328 53 608.5C53 607.672 53.6716 607 54.5 607C55.3284 607 56 607.672 56 608.5Z" fill="#D2D6DB"/>
<path d="M65 608.5C65 609.328 64.3284 610 63.5 610C62.6716 610 62 609.328 62 608.5C62 607.672 62.6716 607 63.5 607C64.3284 607 65 607.672 65 608.5Z" fill="#D2D6DB"/>
<path d="M74 608.5C74 609.328 73.3284 610 72.5 610C71.6716 610 71 609.328 71 608.5C71 607.672 71.6716 607 72.5 607C73.3284 607 74 607.672 74 608.5Z" fill="#D2D6DB"/>
<path d="M83 608.5C83 609.328 82.3284 610 81.5 610C80.6716 610 80 609.328 80 608.5C80 607.672 80.6716 607 81.5 607C82.3284 607 83 607.672 83 608.5Z" fill="#D2D6DB"/>
<path d="M92 608.5C92 609.328 91.3284 610 90.5 610C89.6716 610 89 609.328 89 608.5C89 607.672 89.6716 607 90.5 607C91.3284 607 92 607.672 92 608.5Z" fill="#D2D6DB"/>
<path d="M101 608.5C101 609.328 100.328 610 99.5 610C98.6716 610 98 609.328 98 608.5C98 607.672 98.6716 607 99.5 607C100.328 607 101 607.672 101 608.5Z" fill="#D2D6DB"/>
<path d="M110 608.5C110 609.328 109.328 610 108.5 610C107.672 610 107 609.328 107 608.5C107 607.672 107.672 607 108.5 607C109.328 607 110 607.672 110 608.5Z" fill="#D2D6DB"/>
<path d="M119 608.5C119 609.328 118.328 610 117.5 610C116.672 610 116 609.328 116 608.5C116 607.672 116.672 607 117.5 607C118.328 607 119 607.672 119 608.5Z" fill="#D2D6DB"/>
<path d="M128 608.5C128 609.328 127.328 610 126.5 610C125.672 610 125 609.328 125 608.5C125 607.672 125.672 607 126.5 607C127.328 607 128 607.672 128 608.5Z" fill="#D2D6DB"/>
<path d="M137 608.5C137 609.328 136.328 610 135.5 610C134.672 610 134 609.328 134 608.5C134 607.672 134.672 607 135.5 607C136.328 607 137 607.672 137 608.5Z" fill="#D2D6DB"/>
<path d="M146 608.5C146 609.328 145.328 610 144.5 610C143.672 610 143 609.328 143 608.5C143 607.672 143.672 607 144.5 607C145.328 607 146 607.672 146 608.5Z" fill="#D2D6DB"/>
<path d="M155 608.5C155 609.328 154.328 610 153.5 610C152.672 610 152 609.328 152 608.5C152 607.672 152.672 607 153.5 607C154.328 607 155 607.672 155 608.5Z" fill="#D2D6DB"/>
<path d="M164 608.5C164 609.328 163.328 610 162.5 610C161.672 610 161 609.328 161 608.5C161 607.672 161.672 607 162.5 607C163.328 607 164 607.672 164 608.5Z" fill="#D2D6DB"/>
<path d="M173 608.5C173 609.328 172.328 610 171.5 610C170.672 610 170 609.328 170 608.5C170 607.672 170.672 607 171.5 607C172.328 607 173 607.672 173 608.5Z" fill="#D2D6DB"/>
<path d="M182 608.5C182 609.328 181.328 610 180.5 610C179.672 610 179 609.328 179 608.5C179 607.672 179.672 607 180.5 607C181.328 607 182 607.672 182 608.5Z" fill="#D2D6DB"/>
<path d="M191 608.5C191 609.328 190.328 610 189.5 610C188.672 610 188 609.328 188 608.5C188 607.672 188.672 607 189.5 607C190.328 607 191 607.672 191 608.5Z" fill="#D2D6DB"/>
<path d="M200 608.5C200 609.328 199.328 610 198.5 610C197.672 610 197 609.328 197 608.5C197 607.672 197.672 607 198.5 607C199.328 607 200 607.672 200 608.5Z" fill="#D2D6DB"/>
<path d="M209 608.5C209 609.328 208.328 610 207.5 610C206.672 610 206 609.328 206 608.5C206 607.672 206.672 607 207.5 607C208.328 607 209 607.672 209 608.5Z" fill="#D2D6DB"/>
<path d="M218 608.5C218 609.328 217.328 610 216.5 610C215.672 610 215 609.328 215 608.5C215 607.672 215.672 607 216.5 607C217.328 607 218 607.672 218 608.5Z" fill="#D2D6DB"/>
<path d="M227 608.5C227 609.328 226.328 610 225.5 610C224.672 610 224 609.328 224 608.5C224 607.672 224.672 607 225.5 607C226.328 607 227 607.672 227 608.5Z" fill="#D2D6DB"/>
<path d="M236 608.5C236 609.328 235.328 610 234.5 610C233.672 610 233 609.328 233 608.5C233 607.672 233.672 607 234.5 607C235.328 607 236 607.672 236 608.5Z" fill="#D2D6DB"/>
<path d="M245 608.5C245 609.328 244.328 610 243.5 610C242.672 610 242 609.328 242 608.5C242 607.672 242.672 607 243.5 607C244.328 607 245 607.672 245 608.5Z" fill="#D2D6DB"/>
<path d="M56 617.5C56 618.328 55.3284 619 54.5 619C53.6716 619 53 618.328 53 617.5C53 616.672 53.6716 616 54.5 616C55.3284 616 56 616.672 56 617.5Z" fill="#D2D6DB"/>
<path d="M65 617.5C65 618.328 64.3284 619 63.5 619C62.6716 619 62 618.328 62 617.5C62 616.672 62.6716 616 63.5 616C64.3284 616 65 616.672 65 617.5Z" fill="#D2D6DB"/>
<path d="M74 617.5C74 618.328 73.3284 619 72.5 619C71.6716 619 71 618.328 71 617.5C71 616.672 71.6716 616 72.5 616C73.3284 616 74 616.672 74 617.5Z" fill="#D2D6DB"/>
<path d="M83 617.5C83 618.328 82.3284 619 81.5 619C80.6716 619 80 618.328 80 617.5C80 616.672 80.6716 616 81.5 616C82.3284 616 83 616.672 83 617.5Z" fill="#D2D6DB"/>
<path d="M92 617.5C92 618.328 91.3284 619 90.5 619C89.6716 619 89 618.328 89 617.5C89 616.672 89.6716 616 90.5 616C91.3284 616 92 616.672 92 617.5Z" fill="#D2D6DB"/>
<path d="M101 617.5C101 618.328 100.328 619 99.5 619C98.6716 619 98 618.328 98 617.5C98 616.672 98.6716 616 99.5 616C100.328 616 101 616.672 101 617.5Z" fill="#D2D6DB"/>
<path d="M110 617.5C110 618.328 109.328 619 108.5 619C107.672 619 107 618.328 107 617.5C107 616.672 107.672 616 108.5 616C109.328 616 110 616.672 110 617.5Z" fill="#D2D6DB"/>
<path d="M119 617.5C119 618.328 118.328 619 117.5 619C116.672 619 116 618.328 116 617.5C116 616.672 116.672 616 117.5 616C118.328 616 119 616.672 119 617.5Z" fill="#D2D6DB"/>
<path d="M128 617.5C128 618.328 127.328 619 126.5 619C125.672 619 125 618.328 125 617.5C125 616.672 125.672 616 126.5 616C127.328 616 128 616.672 128 617.5Z" fill="#D2D6DB"/>
<path d="M137 617.5C137 618.328 136.328 619 135.5 619C134.672 619 134 618.328 134 617.5C134 616.672 134.672 616 135.5 616C136.328 616 137 616.672 137 617.5Z" fill="#D2D6DB"/>
<path d="M146 617.5C146 618.328 145.328 619 144.5 619C143.672 619 143 618.328 143 617.5C143 616.672 143.672 616 144.5 616C145.328 616 146 616.672 146 617.5Z" fill="#D2D6DB"/>
<path d="M155 617.5C155 618.328 154.328 619 153.5 619C152.672 619 152 618.328 152 617.5C152 616.672 152.672 616 153.5 616C154.328 616 155 616.672 155 617.5Z" fill="#D2D6DB"/>
<path d="M164 617.5C164 618.328 163.328 619 162.5 619C161.672 619 161 618.328 161 617.5C161 616.672 161.672 616 162.5 616C163.328 616 164 616.672 164 617.5Z" fill="#D2D6DB"/>
<path d="M173 617.5C173 618.328 172.328 619 171.5 619C170.672 619 170 618.328 170 617.5C170 616.672 170.672 616 171.5 616C172.328 616 173 616.672 173 617.5Z" fill="#D2D6DB"/>
<path d="M182 617.5C182 618.328 181.328 619 180.5 619C179.672 619 179 618.328 179 617.5C179 616.672 179.672 616 180.5 616C181.328 616 182 616.672 182 617.5Z" fill="#D2D6DB"/>
<path d="M191 617.5C191 618.328 190.328 619 189.5 619C188.672 619 188 618.328 188 617.5C188 616.672 188.672 616 189.5 616C190.328 616 191 616.672 191 617.5Z" fill="#D2D6DB"/>
<path d="M200 617.5C200 618.328 199.328 619 198.5 619C197.672 619 197 618.328 197 617.5C197 616.672 197.672 616 198.5 616C199.328 616 200 616.672 200 617.5Z" fill="#D2D6DB"/>
<path d="M209 617.5C209 618.328 208.328 619 207.5 619C206.672 619 206 618.328 206 617.5C206 616.672 206.672 616 207.5 616C208.328 616 209 616.672 209 617.5Z" fill="#D2D6DB"/>
<path d="M218 617.5C218 618.328 217.328 619 216.5 619C215.672 619 215 618.328 215 617.5C215 616.672 215.672 616 216.5 616C217.328 616 218 616.672 218 617.5Z" fill="#D2D6DB"/>
<path d="M227 617.5C227 618.328 226.328 619 225.5 619C224.672 619 224 618.328 224 617.5C224 616.672 224.672 616 225.5 616C226.328 616 227 616.672 227 617.5Z" fill="#D2D6DB"/>
<path d="M236 617.5C236 618.328 235.328 619 234.5 619C233.672 619 233 618.328 233 617.5C233 616.672 233.672 616 234.5 616C235.328 616 236 616.672 236 617.5Z" fill="#D2D6DB"/>
<path d="M245 617.5C245 618.328 244.328 619 243.5 619C242.672 619 242 618.328 242 617.5C242 616.672 242.672 616 243.5 616C244.328 616 245 616.672 245 617.5Z" fill="#D2D6DB"/>
<path d="M56 626.5C56 627.328 55.3284 628 54.5 628C53.6716 628 53 627.328 53 626.5C53 625.672 53.6716 625 54.5 625C55.3284 625 56 625.672 56 626.5Z" fill="#D2D6DB"/>
<path d="M65 626.5C65 627.328 64.3284 628 63.5 628C62.6716 628 62 627.328 62 626.5C62 625.672 62.6716 625 63.5 625C64.3284 625 65 625.672 65 626.5Z" fill="#D2D6DB"/>
<path d="M74 626.5C74 627.328 73.3284 628 72.5 628C71.6716 628 71 627.328 71 626.5C71 625.672 71.6716 625 72.5 625C73.3284 625 74 625.672 74 626.5Z" fill="#D2D6DB"/>
<path d="M83 626.5C83 627.328 82.3284 628 81.5 628C80.6716 628 80 627.328 80 626.5C80 625.672 80.6716 625 81.5 625C82.3284 625 83 625.672 83 626.5Z" fill="#D2D6DB"/>
<path d="M92 626.5C92 627.328 91.3284 628 90.5 628C89.6716 628 89 627.328 89 626.5C89 625.672 89.6716 625 90.5 625C91.3284 625 92 625.672 92 626.5Z" fill="#D2D6DB"/>
<path d="M101 626.5C101 627.328 100.328 628 99.5 628C98.6716 628 98 627.328 98 626.5C98 625.672 98.6716 625 99.5 625C100.328 625 101 625.672 101 626.5Z" fill="#D2D6DB"/>
<path d="M110 626.5C110 627.328 109.328 628 108.5 628C107.672 628 107 627.328 107 626.5C107 625.672 107.672 625 108.5 625C109.328 625 110 625.672 110 626.5Z" fill="#D2D6DB"/>
<path d="M119 626.5C119 627.328 118.328 628 117.5 628C116.672 628 116 627.328 116 626.5C116 625.672 116.672 625 117.5 625C118.328 625 119 625.672 119 626.5Z" fill="#D2D6DB"/>
<path d="M128 626.5C128 627.328 127.328 628 126.5 628C125.672 628 125 627.328 125 626.5C125 625.672 125.672 625 126.5 625C127.328 625 128 625.672 128 626.5Z" fill="#D2D6DB"/>
<path d="M137 626.5C137 627.328 136.328 628 135.5 628C134.672 628 134 627.328 134 626.5C134 625.672 134.672 625 135.5 625C136.328 625 137 625.672 137 626.5Z" fill="#D2D6DB"/>
<path d="M146 626.5C146 627.328 145.328 628 144.5 628C143.672 628 143 627.328 143 626.5C143 625.672 143.672 625 144.5 625C145.328 625 146 625.672 146 626.5Z" fill="#D2D6DB"/>
<path d="M155 626.5C155 627.328 154.328 628 153.5 628C152.672 628 152 627.328 152 626.5C152 625.672 152.672 625 153.5 625C154.328 625 155 625.672 155 626.5Z" fill="#D2D6DB"/>
<path d="M164 626.5C164 627.328 163.328 628 162.5 628C161.672 628 161 627.328 161 626.5C161 625.672 161.672 625 162.5 625C163.328 625 164 625.672 164 626.5Z" fill="#D2D6DB"/>
<path d="M173 626.5C173 627.328 172.328 628 171.5 628C170.672 628 170 627.328 170 626.5C170 625.672 170.672 625 171.5 625C172.328 625 173 625.672 173 626.5Z" fill="#D2D6DB"/>
<path d="M182 626.5C182 627.328 181.328 628 180.5 628C179.672 628 179 627.328 179 626.5C179 625.672 179.672 625 180.5 625C181.328 625 182 625.672 182 626.5Z" fill="#D2D6DB"/>
<path d="M191 626.5C191 627.328 190.328 628 189.5 628C188.672 628 188 627.328 188 626.5C188 625.672 188.672 625 189.5 625C190.328 625 191 625.672 191 626.5Z" fill="#D2D6DB"/>
<path d="M200 626.5C200 627.328 199.328 628 198.5 628C197.672 628 197 627.328 197 626.5C197 625.672 197.672 625 198.5 625C199.328 625 200 625.672 200 626.5Z" fill="#D2D6DB"/>
<path d="M209 626.5C209 627.328 208.328 628 207.5 628C206.672 628 206 627.328 206 626.5C206 625.672 206.672 625 207.5 625C208.328 625 209 625.672 209 626.5Z" fill="#D2D6DB"/>
<path d="M218 626.5C218 627.328 217.328 628 216.5 628C215.672 628 215 627.328 215 626.5C215 625.672 215.672 625 216.5 625C217.328 625 218 625.672 218 626.5Z" fill="#D2D6DB"/>
<path d="M227 626.5C227 627.328 226.328 628 225.5 628C224.672 628 224 627.328 224 626.5C224 625.672 224.672 625 225.5 625C226.328 625 227 625.672 227 626.5Z" fill="#D2D6DB"/>
<path d="M236 626.5C236 627.328 235.328 628 234.5 628C233.672 628 233 627.328 233 626.5C233 625.672 233.672 625 234.5 625C235.328 625 236 625.672 236 626.5Z" fill="#D2D6DB"/>
<path d="M245 626.5C245 627.328 244.328 628 243.5 628C242.672 628 242 627.328 242 626.5C242 625.672 242.672 625 243.5 625C244.328 625 245 625.672 245 626.5Z" fill="#D2D6DB"/>
<path d="M56 635.5C56 636.328 55.3284 637 54.5 637C53.6716 637 53 636.328 53 635.5C53 634.672 53.6716 634 54.5 634C55.3284 634 56 634.672 56 635.5Z" fill="#D2D6DB"/>
<path d="M65 635.5C65 636.328 64.3284 637 63.5 637C62.6716 637 62 636.328 62 635.5C62 634.672 62.6716 634 63.5 634C64.3284 634 65 634.672 65 635.5Z" fill="#D2D6DB"/>
<path d="M74 635.5C74 636.328 73.3284 637 72.5 637C71.6716 637 71 636.328 71 635.5C71 634.672 71.6716 634 72.5 634C73.3284 634 74 634.672 74 635.5Z" fill="#D2D6DB"/>
<path d="M83 635.5C83 636.328 82.3284 637 81.5 637C80.6716 637 80 636.328 80 635.5C80 634.672 80.6716 634 81.5 634C82.3284 634 83 634.672 83 635.5Z" fill="#D2D6DB"/>
<path d="M92 635.5C92 636.328 91.3284 637 90.5 637C89.6716 637 89 636.328 89 635.5C89 634.672 89.6716 634 90.5 634C91.3284 634 92 634.672 92 635.5Z" fill="#D2D6DB"/>
<path d="M101 635.5C101 636.328 100.328 637 99.5 637C98.6716 637 98 636.328 98 635.5C98 634.672 98.6716 634 99.5 634C100.328 634 101 634.672 101 635.5Z" fill="#D2D6DB"/>
<path d="M110 635.5C110 636.328 109.328 637 108.5 637C107.672 637 107 636.328 107 635.5C107 634.672 107.672 634 108.5 634C109.328 634 110 634.672 110 635.5Z" fill="#D2D6DB"/>
<path d="M119 635.5C119 636.328 118.328 637 117.5 637C116.672 637 116 636.328 116 635.5C116 634.672 116.672 634 117.5 634C118.328 634 119 634.672 119 635.5Z" fill="#D2D6DB"/>
<path d="M128 635.5C128 636.328 127.328 637 126.5 637C125.672 637 125 636.328 125 635.5C125 634.672 125.672 634 126.5 634C127.328 634 128 634.672 128 635.5Z" fill="#D2D6DB"/>
<path d="M137 635.5C137 636.328 136.328 637 135.5 637C134.672 637 134 636.328 134 635.5C134 634.672 134.672 634 135.5 634C136.328 634 137 634.672 137 635.5Z" fill="#D2D6DB"/>
<path d="M146 635.5C146 636.328 145.328 637 144.5 637C143.672 637 143 636.328 143 635.5C143 634.672 143.672 634 144.5 634C145.328 634 146 634.672 146 635.5Z" fill="#D2D6DB"/>
<path d="M155 635.5C155 636.328 154.328 637 153.5 637C152.672 637 152 636.328 152 635.5C152 634.672 152.672 634 153.5 634C154.328 634 155 634.672 155 635.5Z" fill="#D2D6DB"/>
<path d="M164 635.5C164 636.328 163.328 637 162.5 637C161.672 637 161 636.328 161 635.5C161 634.672 161.672 634 162.5 634C163.328 634 164 634.672 164 635.5Z" fill="#D2D6DB"/>
<path d="M173 635.5C173 636.328 172.328 637 171.5 637C170.672 637 170 636.328 170 635.5C170 634.672 170.672 634 171.5 634C172.328 634 173 634.672 173 635.5Z" fill="#D2D6DB"/>
<path d="M182 635.5C182 636.328 181.328 637 180.5 637C179.672 637 179 636.328 179 635.5C179 634.672 179.672 634 180.5 634C181.328 634 182 634.672 182 635.5Z" fill="#D2D6DB"/>
<path d="M191 635.5C191 636.328 190.328 637 189.5 637C188.672 637 188 636.328 188 635.5C188 634.672 188.672 634 189.5 634C190.328 634 191 634.672 191 635.5Z" fill="#D2D6DB"/>
<path d="M200 635.5C200 636.328 199.328 637 198.5 637C197.672 637 197 636.328 197 635.5C197 634.672 197.672 634 198.5 634C199.328 634 200 634.672 200 635.5Z" fill="#D2D6DB"/>
<path d="M209 635.5C209 636.328 208.328 637 207.5 637C206.672 637 206 636.328 206 635.5C206 634.672 206.672 634 207.5 634C208.328 634 209 634.672 209 635.5Z" fill="#D2D6DB"/>
<path d="M218 635.5C218 636.328 217.328 637 216.5 637C215.672 637 215 636.328 215 635.5C215 634.672 215.672 634 216.5 634C217.328 634 218 634.672 218 635.5Z" fill="#D2D6DB"/>
<path d="M227 635.5C227 636.328 226.328 637 225.5 637C224.672 637 224 636.328 224 635.5C224 634.672 224.672 634 225.5 634C226.328 634 227 634.672 227 635.5Z" fill="#D2D6DB"/>
<path d="M236 635.5C236 636.328 235.328 637 234.5 637C233.672 637 233 636.328 233 635.5C233 634.672 233.672 634 234.5 634C235.328 634 236 634.672 236 635.5Z" fill="#D2D6DB"/>
<path d="M245 635.5C245 636.328 244.328 637 243.5 637C242.672 637 242 636.328 242 635.5C242 634.672 242.672 634 243.5 634C244.328 634 245 634.672 245 635.5Z" fill="#D2D6DB"/>
<path d="M56 644.5C56 645.328 55.3284 646 54.5 646C53.6716 646 53 645.328 53 644.5C53 643.672 53.6716 643 54.5 643C55.3284 643 56 643.672 56 644.5Z" fill="#D2D6DB"/>
<path d="M65 644.5C65 645.328 64.3284 646 63.5 646C62.6716 646 62 645.328 62 644.5C62 643.672 62.6716 643 63.5 643C64.3284 643 65 643.672 65 644.5Z" fill="#D2D6DB"/>
<path d="M74 644.5C74 645.328 73.3284 646 72.5 646C71.6716 646 71 645.328 71 644.5C71 643.672 71.6716 643 72.5 643C73.3284 643 74 643.672 74 644.5Z" fill="#D2D6DB"/>
<path d="M83 644.5C83 645.328 82.3284 646 81.5 646C80.6716 646 80 645.328 80 644.5C80 643.672 80.6716 643 81.5 643C82.3284 643 83 643.672 83 644.5Z" fill="#D2D6DB"/>
<path d="M92 644.5C92 645.328 91.3284 646 90.5 646C89.6716 646 89 645.328 89 644.5C89 643.672 89.6716 643 90.5 643C91.3284 643 92 643.672 92 644.5Z" fill="#D2D6DB"/>
<path d="M101 644.5C101 645.328 100.328 646 99.5 646C98.6716 646 98 645.328 98 644.5C98 643.672 98.6716 643 99.5 643C100.328 643 101 643.672 101 644.5Z" fill="#D2D6DB"/>
<path d="M110 644.5C110 645.328 109.328 646 108.5 646C107.672 646 107 645.328 107 644.5C107 643.672 107.672 643 108.5 643C109.328 643 110 643.672 110 644.5Z" fill="#D2D6DB"/>
<path d="M119 644.5C119 645.328 118.328 646 117.5 646C116.672 646 116 645.328 116 644.5C116 643.672 116.672 643 117.5 643C118.328 643 119 643.672 119 644.5Z" fill="#D2D6DB"/>
<path d="M128 644.5C128 645.328 127.328 646 126.5 646C125.672 646 125 645.328 125 644.5C125 643.672 125.672 643 126.5 643C127.328 643 128 643.672 128 644.5Z" fill="#D2D6DB"/>
<path d="M137 644.5C137 645.328 136.328 646 135.5 646C134.672 646 134 645.328 134 644.5C134 643.672 134.672 643 135.5 643C136.328 643 137 643.672 137 644.5Z" fill="#D2D6DB"/>
<path d="M146 644.5C146 645.328 145.328 646 144.5 646C143.672 646 143 645.328 143 644.5C143 643.672 143.672 643 144.5 643C145.328 643 146 643.672 146 644.5Z" fill="#D2D6DB"/>
<path d="M155 644.5C155 645.328 154.328 646 153.5 646C152.672 646 152 645.328 152 644.5C152 643.672 152.672 643 153.5 643C154.328 643 155 643.672 155 644.5Z" fill="#D2D6DB"/>
<path d="M164 644.5C164 645.328 163.328 646 162.5 646C161.672 646 161 645.328 161 644.5C161 643.672 161.672 643 162.5 643C163.328 643 164 643.672 164 644.5Z" fill="#D2D6DB"/>
<path d="M173 644.5C173 645.328 172.328 646 171.5 646C170.672 646 170 645.328 170 644.5C170 643.672 170.672 643 171.5 643C172.328 643 173 643.672 173 644.5Z" fill="#D2D6DB"/>
<path d="M182 644.5C182 645.328 181.328 646 180.5 646C179.672 646 179 645.328 179 644.5C179 643.672 179.672 643 180.5 643C181.328 643 182 643.672 182 644.5Z" fill="#D2D6DB"/>
<path d="M191 644.5C191 645.328 190.328 646 189.5 646C188.672 646 188 645.328 188 644.5C188 643.672 188.672 643 189.5 643C190.328 643 191 643.672 191 644.5Z" fill="#D2D6DB"/>
<path d="M200 644.5C200 645.328 199.328 646 198.5 646C197.672 646 197 645.328 197 644.5C197 643.672 197.672 643 198.5 643C199.328 643 200 643.672 200 644.5Z" fill="#D2D6DB"/>
<path d="M209 644.5C209 645.328 208.328 646 207.5 646C206.672 646 206 645.328 206 644.5C206 643.672 206.672 643 207.5 643C208.328 643 209 643.672 209 644.5Z" fill="#D2D6DB"/>
<path d="M218 644.5C218 645.328 217.328 646 216.5 646C215.672 646 215 645.328 215 644.5C215 643.672 215.672 643 216.5 643C217.328 643 218 643.672 218 644.5Z" fill="#D2D6DB"/>
<path d="M227 644.5C227 645.328 226.328 646 225.5 646C224.672 646 224 645.328 224 644.5C224 643.672 224.672 643 225.5 643C226.328 643 227 643.672 227 644.5Z" fill="#D2D6DB"/>
<path d="M236 644.5C236 645.328 235.328 646 234.5 646C233.672 646 233 645.328 233 644.5C233 643.672 233.672 643 234.5 643C235.328 643 236 643.672 236 644.5Z" fill="#D2D6DB"/>
<path d="M245 644.5C245 645.328 244.328 646 243.5 646C242.672 646 242 645.328 242 644.5C242 643.672 242.672 643 243.5 643C244.328 643 245 643.672 245 644.5Z" fill="#D2D6DB"/>
<path d="M56 653.5C56 654.328 55.3284 655 54.5 655C53.6716 655 53 654.328 53 653.5C53 652.672 53.6716 652 54.5 652C55.3284 652 56 652.672 56 653.5Z" fill="#D2D6DB"/>
<path d="M65 653.5C65 654.328 64.3284 655 63.5 655C62.6716 655 62 654.328 62 653.5C62 652.672 62.6716 652 63.5 652C64.3284 652 65 652.672 65 653.5Z" fill="#D2D6DB"/>
<path d="M74 653.5C74 654.328 73.3284 655 72.5 655C71.6716 655 71 654.328 71 653.5C71 652.672 71.6716 652 72.5 652C73.3284 652 74 652.672 74 653.5Z" fill="#D2D6DB"/>
<path d="M83 653.5C83 654.328 82.3284 655 81.5 655C80.6716 655 80 654.328 80 653.5C80 652.672 80.6716 652 81.5 652C82.3284 652 83 652.672 83 653.5Z" fill="#D2D6DB"/>
<path d="M92 653.5C92 654.328 91.3284 655 90.5 655C89.6716 655 89 654.328 89 653.5C89 652.672 89.6716 652 90.5 652C91.3284 652 92 652.672 92 653.5Z" fill="#D2D6DB"/>
<path d="M101 653.5C101 654.328 100.328 655 99.5 655C98.6716 655 98 654.328 98 653.5C98 652.672 98.6716 652 99.5 652C100.328 652 101 652.672 101 653.5Z" fill="#D2D6DB"/>
<path d="M110 653.5C110 654.328 109.328 655 108.5 655C107.672 655 107 654.328 107 653.5C107 652.672 107.672 652 108.5 652C109.328 652 110 652.672 110 653.5Z" fill="#D2D6DB"/>
<path d="M119 653.5C119 654.328 118.328 655 117.5 655C116.672 655 116 654.328 116 653.5C116 652.672 116.672 652 117.5 652C118.328 652 119 652.672 119 653.5Z" fill="#D2D6DB"/>
<path d="M128 653.5C128 654.328 127.328 655 126.5 655C125.672 655 125 654.328 125 653.5C125 652.672 125.672 652 126.5 652C127.328 652 128 652.672 128 653.5Z" fill="#D2D6DB"/>
<path d="M137 653.5C137 654.328 136.328 655 135.5 655C134.672 655 134 654.328 134 653.5C134 652.672 134.672 652 135.5 652C136.328 652 137 652.672 137 653.5Z" fill="#D2D6DB"/>
<path d="M146 653.5C146 654.328 145.328 655 144.5 655C143.672 655 143 654.328 143 653.5C143 652.672 143.672 652 144.5 652C145.328 652 146 652.672 146 653.5Z" fill="#D2D6DB"/>
<path d="M155 653.5C155 654.328 154.328 655 153.5 655C152.672 655 152 654.328 152 653.5C152 652.672 152.672 652 153.5 652C154.328 652 155 652.672 155 653.5Z" fill="#D2D6DB"/>
<path d="M164 653.5C164 654.328 163.328 655 162.5 655C161.672 655 161 654.328 161 653.5C161 652.672 161.672 652 162.5 652C163.328 652 164 652.672 164 653.5Z" fill="#D2D6DB"/>
<path d="M173 653.5C173 654.328 172.328 655 171.5 655C170.672 655 170 654.328 170 653.5C170 652.672 170.672 652 171.5 652C172.328 652 173 652.672 173 653.5Z" fill="#D2D6DB"/>
<path d="M182 653.5C182 654.328 181.328 655 180.5 655C179.672 655 179 654.328 179 653.5C179 652.672 179.672 652 180.5 652C181.328 652 182 652.672 182 653.5Z" fill="#D2D6DB"/>
<path d="M191 653.5C191 654.328 190.328 655 189.5 655C188.672 655 188 654.328 188 653.5C188 652.672 188.672 652 189.5 652C190.328 652 191 652.672 191 653.5Z" fill="#D2D6DB"/>
<path d="M200 653.5C200 654.328 199.328 655 198.5 655C197.672 655 197 654.328 197 653.5C197 652.672 197.672 652 198.5 652C199.328 652 200 652.672 200 653.5Z" fill="#D2D6DB"/>
<path d="M209 653.5C209 654.328 208.328 655 207.5 655C206.672 655 206 654.328 206 653.5C206 652.672 206.672 652 207.5 652C208.328 652 209 652.672 209 653.5Z" fill="#D2D6DB"/>
<path d="M218 653.5C218 654.328 217.328 655 216.5 655C215.672 655 215 654.328 215 653.5C215 652.672 215.672 652 216.5 652C217.328 652 218 652.672 218 653.5Z" fill="#D2D6DB"/>
<path d="M227 653.5C227 654.328 226.328 655 225.5 655C224.672 655 224 654.328 224 653.5C224 652.672 224.672 652 225.5 652C226.328 652 227 652.672 227 653.5Z" fill="#D2D6DB"/>
<path d="M236 653.5C236 654.328 235.328 655 234.5 655C233.672 655 233 654.328 233 653.5C233 652.672 233.672 652 234.5 652C235.328 652 236 652.672 236 653.5Z" fill="#D2D6DB"/>
<path d="M245 653.5C245 654.328 244.328 655 243.5 655C242.672 655 242 654.328 242 653.5C242 652.672 242.672 652 243.5 652C244.328 652 245 652.672 245 653.5Z" fill="#D2D6DB"/>
<path d="M56 662.5C56 663.328 55.3284 664 54.5 664C53.6716 664 53 663.328 53 662.5C53 661.672 53.6716 661 54.5 661C55.3284 661 56 661.672 56 662.5Z" fill="#D2D6DB"/>
<path d="M65 662.5C65 663.328 64.3284 664 63.5 664C62.6716 664 62 663.328 62 662.5C62 661.672 62.6716 661 63.5 661C64.3284 661 65 661.672 65 662.5Z" fill="#D2D6DB"/>
<path d="M74 662.5C74 663.328 73.3284 664 72.5 664C71.6716 664 71 663.328 71 662.5C71 661.672 71.6716 661 72.5 661C73.3284 661 74 661.672 74 662.5Z" fill="#D2D6DB"/>
<path d="M83 662.5C83 663.328 82.3284 664 81.5 664C80.6716 664 80 663.328 80 662.5C80 661.672 80.6716 661 81.5 661C82.3284 661 83 661.672 83 662.5Z" fill="#D2D6DB"/>
<path d="M92 662.5C92 663.328 91.3284 664 90.5 664C89.6716 664 89 663.328 89 662.5C89 661.672 89.6716 661 90.5 661C91.3284 661 92 661.672 92 662.5Z" fill="#D2D6DB"/>
<path d="M101 662.5C101 663.328 100.328 664 99.5 664C98.6716 664 98 663.328 98 662.5C98 661.672 98.6716 661 99.5 661C100.328 661 101 661.672 101 662.5Z" fill="#D2D6DB"/>
<path d="M110 662.5C110 663.328 109.328 664 108.5 664C107.672 664 107 663.328 107 662.5C107 661.672 107.672 661 108.5 661C109.328 661 110 661.672 110 662.5Z" fill="#D2D6DB"/>
<path d="M119 662.5C119 663.328 118.328 664 117.5 664C116.672 664 116 663.328 116 662.5C116 661.672 116.672 661 117.5 661C118.328 661 119 661.672 119 662.5Z" fill="#D2D6DB"/>
<path d="M128 662.5C128 663.328 127.328 664 126.5 664C125.672 664 125 663.328 125 662.5C125 661.672 125.672 661 126.5 661C127.328 661 128 661.672 128 662.5Z" fill="#D2D6DB"/>
<path d="M137 662.5C137 663.328 136.328 664 135.5 664C134.672 664 134 663.328 134 662.5C134 661.672 134.672 661 135.5 661C136.328 661 137 661.672 137 662.5Z" fill="#D2D6DB"/>
<path d="M146 662.5C146 663.328 145.328 664 144.5 664C143.672 664 143 663.328 143 662.5C143 661.672 143.672 661 144.5 661C145.328 661 146 661.672 146 662.5Z" fill="#D2D6DB"/>
<path d="M155 662.5C155 663.328 154.328 664 153.5 664C152.672 664 152 663.328 152 662.5C152 661.672 152.672 661 153.5 661C154.328 661 155 661.672 155 662.5Z" fill="#D2D6DB"/>
<path d="M164 662.5C164 663.328 163.328 664 162.5 664C161.672 664 161 663.328 161 662.5C161 661.672 161.672 661 162.5 661C163.328 661 164 661.672 164 662.5Z" fill="#D2D6DB"/>
<path d="M173 662.5C173 663.328 172.328 664 171.5 664C170.672 664 170 663.328 170 662.5C170 661.672 170.672 661 171.5 661C172.328 661 173 661.672 173 662.5Z" fill="#D2D6DB"/>
<path d="M182 662.5C182 663.328 181.328 664 180.5 664C179.672 664 179 663.328 179 662.5C179 661.672 179.672 661 180.5 661C181.328 661 182 661.672 182 662.5Z" fill="#D2D6DB"/>
<path d="M191 662.5C191 663.328 190.328 664 189.5 664C188.672 664 188 663.328 188 662.5C188 661.672 188.672 661 189.5 661C190.328 661 191 661.672 191 662.5Z" fill="#D2D6DB"/>
<path d="M200 662.5C200 663.328 199.328 664 198.5 664C197.672 664 197 663.328 197 662.5C197 661.672 197.672 661 198.5 661C199.328 661 200 661.672 200 662.5Z" fill="#D2D6DB"/>
<path d="M209 662.5C209 663.328 208.328 664 207.5 664C206.672 664 206 663.328 206 662.5C206 661.672 206.672 661 207.5 661C208.328 661 209 661.672 209 662.5Z" fill="#D2D6DB"/>
<path d="M218 662.5C218 663.328 217.328 664 216.5 664C215.672 664 215 663.328 215 662.5C215 661.672 215.672 661 216.5 661C217.328 661 218 661.672 218 662.5Z" fill="#D2D6DB"/>
<path d="M227 662.5C227 663.328 226.328 664 225.5 664C224.672 664 224 663.328 224 662.5C224 661.672 224.672 661 225.5 661C226.328 661 227 661.672 227 662.5Z" fill="#D2D6DB"/>
<path d="M236 662.5C236 663.328 235.328 664 234.5 664C233.672 664 233 663.328 233 662.5C233 661.672 233.672 661 234.5 661C235.328 661 236 661.672 236 662.5Z" fill="#D2D6DB"/>
<path d="M245 662.5C245 663.328 244.328 664 243.5 664C242.672 664 242 663.328 242 662.5C242 661.672 242.672 661 243.5 661C244.328 661 245 661.672 245 662.5Z" fill="#D2D6DB"/>
<rect width="109" height="72" transform="translate(60 588)" fill="#0099FF"/>
<path d="M61.4062 617V595.182H76.7472V599.955H67.3295V603.705H75.8097V608.477H67.3295V617H61.4062ZM78.9258 617V595.182H84.8491V612.227H93.6701V617H78.9258ZM101.732 617H95.34L102.542 595.182H110.638L117.84 617H111.448L106.675 601.19H106.505L101.732 617ZM100.539 608.392H112.556V612.824H100.539V608.392ZM130.853 602C130.796 601.29 130.53 600.736 130.054 600.338C129.585 599.94 128.872 599.741 127.913 599.741C127.302 599.741 126.801 599.816 126.411 599.965C126.027 600.107 125.743 600.303 125.558 600.551C125.374 600.8 125.278 601.084 125.271 601.403C125.257 601.666 125.303 601.904 125.409 602.117C125.523 602.323 125.7 602.511 125.942 602.682C126.183 602.845 126.492 602.994 126.869 603.129C127.245 603.264 127.693 603.385 128.211 603.491L130.001 603.875C131.208 604.131 132.242 604.468 133.101 604.887C133.96 605.306 134.664 605.8 135.21 606.368C135.757 606.929 136.159 607.561 136.414 608.264C136.677 608.967 136.812 609.734 136.819 610.565C136.812 612 136.453 613.214 135.743 614.209C135.033 615.203 134.017 615.96 132.696 616.478C131.382 616.996 129.802 617.256 127.955 617.256C126.059 617.256 124.404 616.975 122.991 616.414C121.585 615.853 120.491 614.99 119.71 613.825C118.936 612.653 118.545 611.155 118.538 609.33H124.163C124.198 609.997 124.365 610.558 124.664 611.013C124.962 611.467 125.381 611.812 125.921 612.046C126.468 612.281 127.117 612.398 127.87 612.398C128.502 612.398 129.031 612.32 129.458 612.163C129.884 612.007 130.207 611.79 130.427 611.513C130.647 611.237 130.761 610.92 130.768 610.565C130.761 610.232 130.651 609.94 130.438 609.692C130.232 609.436 129.891 609.209 129.415 609.01C128.939 608.804 128.296 608.612 127.487 608.435L125.313 607.966C123.382 607.547 121.858 606.847 120.743 605.867C119.635 604.88 119.085 603.534 119.092 601.83C119.085 600.445 119.454 599.234 120.2 598.197C120.953 597.153 121.993 596.339 123.321 595.757C124.656 595.175 126.187 594.884 127.913 594.884C129.674 594.884 131.198 595.178 132.483 595.768C133.769 596.357 134.759 597.188 135.455 598.261C136.159 599.326 136.514 600.572 136.521 602H130.853ZM139.072 617V595.182H144.996V603.705H152.836V595.182H158.76V617H152.836V608.477H144.996V617H139.072ZM81.7756 639.364H75.767C75.7244 638.866 75.6108 638.415 75.4261 638.011C75.2486 637.606 75 637.258 74.6804 636.967C74.3679 636.668 73.9879 636.441 73.5405 636.285C73.093 636.121 72.5852 636.04 72.017 636.04C71.0227 636.04 70.1811 636.281 69.4922 636.764C68.8104 637.247 68.2919 637.94 67.9368 638.842C67.5888 639.744 67.4148 640.827 67.4148 642.091C67.4148 643.426 67.5923 644.545 67.9474 645.447C68.3097 646.342 68.8317 647.016 69.5135 647.471C70.1953 647.918 71.0156 648.142 71.9744 648.142C72.5213 648.142 73.0114 648.075 73.4446 647.94C73.8778 647.798 74.2543 647.595 74.5739 647.332C74.8935 647.07 75.1527 646.754 75.3516 646.384C75.5575 646.008 75.696 645.585 75.767 645.116L81.7756 645.159C81.7045 646.082 81.4453 647.023 80.9979 647.982C80.5504 648.934 79.9148 649.815 79.0909 650.624C78.2741 651.427 77.2621 652.073 76.0547 652.563C74.8473 653.053 73.4446 653.298 71.8466 653.298C69.8438 653.298 68.0469 652.869 66.456 652.009C64.8722 651.15 63.6186 649.886 62.6953 648.217C61.7791 646.548 61.321 644.506 61.321 642.091C61.321 639.662 61.7898 637.616 62.7273 635.955C63.6648 634.286 64.929 633.025 66.5199 632.173C68.1108 631.313 69.8864 630.884 71.8466 630.884C73.2244 630.884 74.4922 631.072 75.6499 631.448C76.8075 631.825 77.8232 632.375 78.6967 633.099C79.5703 633.817 80.2734 634.701 80.8061 635.752C81.3388 636.803 81.6619 638.007 81.7756 639.364ZM89.4567 653H83.0646L90.2663 631.182H98.3629L105.565 653H99.1726L94.3999 637.19H94.2294L89.4567 653ZM88.2635 644.392H100.281V648.824H88.2635V644.392ZM107.666 653V631.182H117.084C118.703 631.182 120.12 631.477 121.334 632.066C122.549 632.656 123.493 633.504 124.168 634.612C124.843 635.72 125.18 637.048 125.18 638.597C125.18 640.159 124.832 641.477 124.136 642.549C123.447 643.621 122.478 644.431 121.228 644.978C119.985 645.525 118.532 645.798 116.871 645.798H111.246V641.196H115.677C116.373 641.196 116.966 641.111 117.456 640.94C117.954 640.763 118.334 640.482 118.596 640.099C118.866 639.715 119.001 639.214 119.001 638.597C119.001 637.972 118.866 637.464 118.596 637.073C118.334 636.675 117.954 636.384 117.456 636.2C116.966 636.008 116.373 635.912 115.677 635.912H113.589V653H107.666ZM120.45 642.986L125.905 653H119.47L114.143 642.986H120.45ZM136.1 653H127.705V631.182H136.015C138.259 631.182 140.198 631.619 141.831 632.492C143.472 633.359 144.736 634.609 145.624 636.242C146.519 637.869 146.966 639.818 146.966 642.091C146.966 644.364 146.523 646.317 145.635 647.95C144.747 649.577 143.49 650.827 141.863 651.7C140.237 652.567 138.316 653 136.1 653ZM133.628 647.972H135.887C136.966 647.972 137.886 647.798 138.646 647.45C139.413 647.102 139.996 646.501 140.393 645.649C140.798 644.797 141.001 643.611 141.001 642.091C141.001 640.571 140.795 639.385 140.383 638.533C139.978 637.68 139.381 637.08 138.593 636.732C137.812 636.384 136.853 636.21 135.716 636.21H133.628V647.972ZM161.468 638C161.412 637.29 161.145 636.736 160.669 636.338C160.201 635.94 159.487 635.741 158.528 635.741C157.917 635.741 157.417 635.816 157.026 635.965C156.642 636.107 156.358 636.303 156.174 636.551C155.989 636.8 155.893 637.084 155.886 637.403C155.872 637.666 155.918 637.904 156.025 638.117C156.138 638.323 156.316 638.511 156.557 638.682C156.799 638.845 157.108 638.994 157.484 639.129C157.86 639.264 158.308 639.385 158.826 639.491L160.616 639.875C161.824 640.131 162.857 640.468 163.716 640.887C164.576 641.306 165.279 641.8 165.826 642.368C166.373 642.929 166.774 643.561 167.029 644.264C167.292 644.967 167.427 645.734 167.434 646.565C167.427 648 167.069 649.214 166.358 650.209C165.648 651.203 164.632 651.96 163.311 652.478C161.998 652.996 160.417 653.256 158.571 653.256C156.674 653.256 155.02 652.975 153.606 652.414C152.2 651.853 151.106 650.99 150.325 649.825C149.551 648.653 149.16 647.155 149.153 645.33H154.778C154.814 645.997 154.98 646.558 155.279 647.013C155.577 647.467 155.996 647.812 156.536 648.046C157.083 648.281 157.733 648.398 158.485 648.398C159.118 648.398 159.647 648.32 160.073 648.163C160.499 648.007 160.822 647.79 161.042 647.513C161.262 647.237 161.376 646.92 161.383 646.565C161.376 646.232 161.266 645.94 161.053 645.692C160.847 645.436 160.506 645.209 160.03 645.01C159.554 644.804 158.912 644.612 158.102 644.435L155.929 643.966C153.997 643.547 152.473 642.847 151.358 641.867C150.25 640.88 149.7 639.534 149.707 637.83C149.7 636.445 150.069 635.234 150.815 634.197C151.568 633.153 152.608 632.339 153.936 631.757C155.272 631.175 156.802 630.884 158.528 630.884C160.289 630.884 161.813 631.178 163.098 631.768C164.384 632.357 165.375 633.188 166.071 634.261C166.774 635.326 167.129 636.572 167.136 638H161.468Z" fill="white"/>
</g>
<defs>
<clipPath id="clip0_4_209">
<rect width="1280" height="832" fill="white"/>
</clipPath>
</defs>
</svg>
